<svg id="Слой_1" data-name="Слой 1" xmlns="http://www.w3.org/2000/svg" width="20" height="17" viewBox="0 0 6.54 5.65"><defs><style>.cls-1{fill:#fff;}.cls-2{fill:#d8e5f1;}.cls-3{fill:#bdcfe3;}</style></defs><title>plane-icon</title><path class="cls-1" d="M165.74,217.57l-1,5.22a0.39,0.39,0,0,1-.54.19l-2.39-1.83-0.87-.42-1.46-.49a0.39,0.39,0,0,1-.25-0.25,0.35,0.35,0,0,1,.25-0.27l5.81-2.28s0.48-.21.48,0.14" transform="translate(-159.2 -217.37)"/><path class="cls-2" d="M161.59,222.73a0.37,0.37,0,0,1-.16-0.28l-0.53-1.72,3.51-2.23s0.2-.12.2,0,0,0-.07.12l-2.76,2.48" transform="translate(-159.2 -217.37)"/><path class="cls-3" d="M162.69,221.85l-0.95.86a0.16,0.16,0,0,1-.15,0l0.18-1.6" transform="translate(-159.2 -217.37)"/></svg>