<svg id="Слой_1" data-name="Слой 1" xmlns="http://www.w3.org/2000/svg" width="20" height="20" viewBox="0 0 5.24 5.34"><defs><style>.cls-1{fill:#fff;}</style></defs><title>viber-icon</title><path class="cls-1" d="M609.84,171.65c0-.21.21-0.13,0.3-0.15a2.48,2.48,0,0,1,2.32,2.43c0,0.12,0,.3-0.14.3s-0.13-.19-0.14-0.31a2.15,2.15,0,0,0-2.07-2.14c-0.11,0-.27,0-0.26-0.14" transform="translate(-607.27 -171.5)"/><path class="cls-1" d="M611.71,174c-0.2,0-.16-0.15-0.18-0.27a1.3,1.3,0,0,0-1.22-1.27c-0.12,0-.3,0-0.27-0.19s0.2-.11.32-0.1a1.64,1.64,0,0,1,1.46,1.56c0,0.09,0,.25-0.11.27" transform="translate(-607.27 -171.5)"/><path class="cls-1" d="M611.2,173.57a0.17,0.17,0,0,1-.13.22,0.15,0.15,0,0,1-.15-0.15,0.59,0.59,0,0,0-.54-0.58c-0.1,0-.2,0-0.15-0.18a0.18,0.18,0,0,1,.2-0.1,0.87,0.87,0,0,1,.77.79" transform="translate(-607.27 -171.5)"/><path class="cls-1" d="M612.47,176.07a1.24,1.24,0,0,1-1,.78,1.78,1.78,0,0,1-.27-0.08,6.89,6.89,0,0,1-3.82-3.84,0.93,0.93,0,0,1,.63-1.33,0.48,0.48,0,0,1,.33,0,2.86,2.86,0,0,1,1,1.3,0.48,0.48,0,0,1-.28.42,0.48,0.48,0,0,0-.16.68,2.45,2.45,0,0,0,1.28,1.25,0.4,0.4,0,0,0,.55-0.13,0.56,0.56,0,0,1,.91-0.13c0.17,0.12.34,0.24,0.51,0.37a0.59,0.59,0,0,1,.37.7" transform="translate(-607.27 -171.5)"/></svg>