<svg version="1.1" id="Layer_1" xmlns="http://www.w3.org/2000/svg" xmlns:xlink="http://www.w3.org/1999/xlink" x="0px" y="0px"
	 width="82.001px" height="82.002px" viewBox="0 0 82.001 82.002" enable-background="new 0 0 82.001 82.002" xml:space="preserve">
	<path id="adv-clock" fill="#f1ce76" d="M69.28,69.281C61.722,76.84,51.693,81,41.002,81c-10.693,0-20.723-4.16-28.28-11.719
		C5.161,61.721,1.001,51.676,1.001,41.002c0-10.676,4.16-20.723,11.703-28.281c9.583-9.582,23.24-13.643,36.518-10.856
		c1.61,0.329,2.638,1.921,2.305,3.528c-0.329,1.627-1.921,2.654-3.498,2.322c-11.287-2.37-22.908,1.078-31.063,9.232
		c-13.263,13.262-13.263,34.844,0,48.105c13.26,13.264,34.843,13.264,48.105,0c12.564-12.564,13.228-32.574,2.022-45.916
		l-6.913,6.912c-1.176,1.158-3.068,1.158-4.227,0c-1.16-1.178-1.16-3.066,0-4.229l9.1-9.1c1.176-1.16,3.068-1.16,4.227,0
		c7.561,7.559,11.721,17.588,11.721,28.281C81.001,51.693,76.841,61.721,69.28,69.281L69.28,69.281z M43.937,41.266
		c0,0.051-0.018,0.084-0.018,0.135c0,0.064,0,0.115-0.019,0.162c0,0.051-0.015,0.102-0.032,0.152
		c-0.016,0.047-0.016,0.082-0.033,0.131c-0.015,0.051-0.032,0.1-0.051,0.15c-0.014,0.049-0.032,0.08-0.047,0.131
		c-0.018,0.051-0.051,0.084-0.068,0.135c-0.015,0.049-0.047,0.082-0.065,0.133c-0.018,0.047-0.05,0.098-0.065,0.131
		c-0.035,0.051-0.051,0.102-0.083,0.133c-0.032,0.051-0.068,0.084-0.101,0.131c-0.016,0.035-0.033,0.068-0.065,0.102
		c-0.065,0.064-0.134,0.148-0.199,0.217L30.309,55.887c-0.579,0.582-1.343,0.879-2.106,0.879c-0.76,0-1.523-0.297-2.105-0.879
		c-1.158-1.178-1.158-3.066,0-4.227L38,39.758V16.15c0-1.639,1.343-2.984,2.984-2.984s2.984,1.346,2.967,2.984v24.816
		C43.951,41.066,43.951,41.164,43.937,41.266L43.937,41.266z"/>
</svg>
