<svg version="1.1" id="Layer_1" xmlns="http://www.w3.org/2000/svg" xmlns:xlink="http://www.w3.org/1999/xlink" x="0px" y="0px"
	 width="82.001px" height="82.002px" viewBox="0 0 82.001 82.002" enable-background="new 0 0 82.001 82.002" xml:space="preserve">
	<path id="adv-gear" fill="#f1ce76" d="M81.95,37.32c-0.018-2.821-2.059-5.186-4.841-5.64l-5.096-0.829c-0.522-1.621-1.183-3.207-1.957-4.728
		l3.053-4.374c1.604-2.313,1.315-5.42-0.674-7.38l-5.013-4.947c-1.99-1.957-5.094-2.213-7.389-0.556
		c-0.019,0.015-0.033,0.015-0.051,0.033l-19.202,14.37h-0.065c-0.035,0-0.086,0-0.119,0c-4.742,0.101-9.161,2.061-12.434,5.487
		c-3.272,3.428-5.013,7.938-4.912,12.681C23.471,51.1,31.385,58.8,41.001,58.8c0.137,0,0.271,0,0.406,0
		c9.786-0.22,17.563-8.378,17.344-18.172c-0.051-1.957-0.404-3.881-1.078-5.705c-0.576-1.57-2.331-2.381-3.899-1.809
		c-1.567,0.573-2.379,2.332-1.806,3.902c0.439,1.197,0.675,2.465,0.71,3.748c0.151,6.45-4.978,11.805-11.406,11.956
		c-0.083,0-0.185,0-0.271,0c-6.311,0-11.522-5.066-11.674-11.416c-0.068-3.124,1.078-6.078,3.222-8.342
		c2.142-2.245,5.028-3.527,8.116-3.613l1.046,0.018c0.674,0.015,1.333-0.202,1.874-0.609l19.754-14.792l4.606,4.544l-2.935,4.188
		c-1.265,1.806-1.416,4.169-0.403,6.162c0.638,1.268,1.196,2.565,1.618,3.902c0.691,2.161,2.497,3.715,4.725,4.068l4.909,0.793
		l0.05,6.554l-5.06,0.894c-2.177,0.39-3.95,1.96-4.624,4.087c-0.422,1.318-0.962,2.616-1.604,3.899
		c-1.027,2.028-0.844,4.409,0.472,6.215l2.92,4.036l-4.538,4.609l-4.184-2.938c-1.824-1.268-4.186-1.419-6.175-0.407
		c-1.199,0.627-2.447,1.149-3.729,1.571c-2.145,0.71-3.68,2.519-4.033,4.728l-0.793,5.001l-6.545,0.051l-0.879-4.983
		c-0.387-2.194-1.957-3.985-4.099-4.659c-1.369-0.422-2.685-0.962-3.95-1.589c-2.007-1.013-4.368-0.825-6.174,0.476l-4.101,2.97
		l-4.606-4.541l2.901-4.154c1.283-1.823,1.42-4.205,0.39-6.181c-0.642-1.25-1.197-2.568-1.654-3.917
		c-0.707-2.129-2.513-3.682-4.707-4.035l-4.992-0.796l-0.068-6.501l5.01-0.879c2.195-0.386,3.982-1.957,4.656-4.102
		c0.422-1.369,0.963-2.685,1.586-3.952c1.013-2.011,0.829-4.375-0.472-6.18l-2.97-4.104l4.541-4.609l4.134,2.887
		c1.838,1.283,4.217,1.42,6.206,0.371c1.283-0.674,2.635-1.232,4.016-1.672c2.177-0.691,3.762-2.497,4.119-4.742l0.792-4.897
		l6.815-0.05c1.67-0.018,3.021-1.387,3.021-3.059C47.514,1.352,46.165,0,44.493,0h-0.015L37.39,0.054
		c-2.815,0.015-5.179,2.058-5.634,4.843l-0.825,5.085c-1.689,0.54-3.358,1.232-4.927,2.061l-4.321-3.023
		c-2.31-1.604-5.416-1.318-7.373,0.675l-4.941,5.016c-1.957,1.992-2.213,5.099-0.559,7.397l3.07,4.27
		c-0.757,1.521-1.398,3.125-1.921,4.764l-5.165,0.93H4.776c-2.648,0.487-4.656,2.801-4.775,5.503c0,0.051,0,0.101,0,0.151
		l0.054,7.095c0.015,2.818,2.058,5.182,4.841,5.64l5.179,0.825c0.541,1.64,1.215,3.229,1.993,4.73l-3.021,4.321
		c-1.604,2.313-1.315,5.423,0.675,7.38l5.01,4.947c1.992,1.96,5.096,2.194,7.391,0.559l4.268-3.074
		c1.521,0.761,3.121,1.402,4.758,1.925l0.912,5.185c0.489,2.753,2.868,4.746,5.669,4.746c0.018,0,0.032,0,0.05,0l7.086-0.051
		c2.818-0.018,5.183-2.061,5.637-4.847l0.826-5.185c1.535-0.522,3.055-1.164,4.522-1.909l4.368,3.059
		c2.313,1.604,5.417,1.315,7.374-0.678l4.944-5.016c1.975-1.992,2.209-5.099,0.556-7.395l-3.035-4.205
		c0.774-1.553,1.435-3.142,1.957-4.728l5.247-0.93c2.765-0.49,4.772-2.904,4.74-5.708L81.95,37.32L81.95,37.32z"/>
</svg>
