<svg version="1.1" id="Layer_1" xmlns="http://www.w3.org/2000/svg" xmlns:xlink="http://www.w3.org/1999/xlink" x="0px" y="0px"
	 width="82.001px" height="82.002px" viewBox="0 0 82.001 82.002" enable-background="new 0 0 82.001 82.002" xml:space="preserve">
	<path id="adv-screwdriver" fill="#f1ce76" d="M77.723,25.551c-0.885,0.893-2.319,0.893-3.207-0.006c-0.885-0.896-0.889-2.35-0.003-3.246
		c3.946-3.998,3.94-10.51-0.019-14.516l-0.178-0.182C70.36,3.596,63.929,3.586,59.979,7.584L44.884,22.869
		c-1.637,1.656-2.637,3.768-2.893,6.107c-0.074,0.684-0.448,1.295-1.016,1.67c-0.57,0.375-1.277,0.469-1.925,0.262
		c-2.747-0.891-5.669-0.496-8.029,1.006l19.46,19.705c1.485-2.391,1.874-5.35,0.995-8.131c-0.205-0.656-0.113-1.369,0.258-1.949
		c0.369-0.576,0.975-0.953,1.648-1.027c2.311-0.258,4.398-1.271,6.034-2.928l6.955-7.045c0.885-0.893,2.319-0.893,3.208,0.006
		c0.885,0.896,0.888,2.35,0.003,3.246l-6.955,7.041c-1.776,1.797-3.911,3.07-6.278,3.754c0.582,4.377-0.853,8.803-4.003,11.992
		l-0.083,0.086c-0.886,0.895-2.319,0.895-3.207-0.004l-7.52-7.611L22.566,68.258c-0.023,0.021-0.044,0.041-0.068,0.063
		c-0.023,0.02-0.048,0.045-0.074,0.068c-0.042,0.035-0.083,0.064-0.128,0.098c-0.015,0.012-0.029,0.027-0.045,0.035L3.561,81.594
		c-0.899,0.631-2.118,0.518-2.893-0.27c-0.778-0.783-0.888-2.016-0.267-2.928L13.31,59.471c0.012-0.016,0.023-0.029,0.036-0.049
		c0.032-0.041,0.065-0.086,0.098-0.127c0.024-0.027,0.044-0.051,0.068-0.074c0.021-0.023,0.038-0.047,0.06-0.068l14.91-15.096
		c0.883-0.893,2.32-0.893,3.205,0.008c0.888,0.896,0.888,2.348,0.006,3.244L18.386,60.783l2.571,2.602l17.37-17.588L26.041,33.357
		c-0.885-0.896-0.888-2.352-0.003-3.246l0.086-0.086c3.148-3.189,7.52-4.641,11.844-4.053c0.674-2.395,1.93-4.559,3.706-6.355
		L56.769,4.335c5.714-5.788,15.023-5.776,20.752,0.024l0.179,0.18C83.425,10.34,83.437,19.762,77.723,25.551L77.723,25.551z
		 M15.501,64.35l-4.314,6.326l6.248-4.369L15.501,64.35L15.501,64.35z M72.979,19.266L57.125,35.32
		c-0.885,0.896-2.322,0.895-3.207-0.002c-0.889-0.898-0.889-2.354-0.006-3.246l15.86-16.057c0.883-0.895,2.319-0.895,3.205,0.002
		C73.865,16.918,73.865,18.369,72.979,19.266L72.979,19.266z M66.186,12.386L50.327,28.439c-0.885,0.896-2.319,0.895-3.207-0.002
		c-0.885-0.896-0.888-2.352-0.003-3.246L62.975,9.135c0.886-0.895,2.319-0.895,3.208,0.002
		C67.067,10.037,67.07,11.488,66.186,12.386L66.186,12.386z"/>
</svg>
