<svg id="Слой_1" data-name="Слой 1" xmlns="http://www.w3.org/2000/svg" width="48" height="53" viewBox="0 0 34.78 38.89"><defs><style>.cls-1{fill:none;}.cls-2{fill:#fff;}.cls-3{fill:#efcf87;}</style></defs><title>calendar-icon</title><path class="cls-1" d="M198.34,169.8a1.89,1.89,0,0,0,1.89,1.89h28.31a1.89,1.89,0,0,0,1.89-1.89V148.07h-32.1V169.8ZM218.81,155h2.55v2.55h-2.55V155Zm0,5.84h2.55v2.55h-2.55V160.8ZM213,155h2.55v2.55H213V155Zm0,5.84h2.55v2.55H213V160.8ZM207.2,155h2.55v2.55H207.2V155Zm0,5.84h2.55v2.55H207.2V160.8Z" transform="translate(-197 -134.14)"/><path class="cls-2" d="M228.54,138.25H223v-4.12h-1.34v4.12h-3.77v1.34h3.77v3.66H223v-3.66h5.56a1.89,1.89,0,0,1,1.89,1.89v5.24h-32.1v-5.24a1.89,1.89,0,0,1,1.89-1.89h5.5v3.66h1.34v-9.12h-1.34v4.12h-5.5a3.24,3.24,0,0,0-3.23,3.23V169.8a3.24,3.24,0,0,0,3.23,3.23h28.31a3.24,3.24,0,0,0,3.23-3.23V141.49A3.24,3.24,0,0,0,228.54,138.25Zm1.89,31.55a1.89,1.89,0,0,1-1.89,1.89H200.23a1.89,1.89,0,0,1-1.89-1.89V148.07h32.1V169.8Z" transform="translate(-197 -134.14)"/><polygon class="cls-2" points="16.72 9.12 18.06 9.12 18.06 0 16.72 0 16.72 4.12 12.87 4.12 12.87 5.46 16.72 5.46 16.72 9.12"/><rect class="cls-3" x="10.2" y="20.82" width="2.55" height="2.55"/><rect class="cls-3" x="16.02" y="20.82" width="2.55" height="2.55"/><rect class="cls-3" x="21.81" y="20.82" width="2.55" height="2.55"/><rect class="cls-3" x="21.81" y="26.66" width="2.55" height="2.55"/><rect class="cls-3" x="16.02" y="26.66" width="2.55" height="2.55"/><rect class="cls-3" x="10.2" y="26.66" width="2.55" height="2.55"/></svg>