<svg id="Слой_1" data-name="Слой 1" xmlns="http://www.w3.org/2000/svg" width="16" height="16" viewBox="0 0 16 16"><defs><style>.cls-1{fill:#313131;}</style></defs><title>call-out</title><path class="cls-1" d="M310.58,404c-1.71,0-4.83-2-7.76-4.94-3.19-3.21-5.92-7.37-4.38-8.92l2.2-2a0.66,0.66,0,0,1,.94.06l2.87,3.33a0.67,0.67,0,0,1,.09.74l-1.11,2.24,4,4,2.22-1.12a0.66,0.66,0,0,1,.73.09l3.31,2.87a0.67,0.67,0,0,1,.07.94l-1.92,2.2A1.62,1.62,0,0,1,310.58,404ZM301,389.61l-1.66,1.49c-0.37.38,0.64,3.25,4.4,7,2.93,3,5.7,4.55,6.82,4.55a0.4,0.4,0,0,0,.25-0.05l1.46-1.68-2.47-2.14-2.26,1.13a0.66,0.66,0,0,1-.76-0.13l-4.64-4.67a0.67,0.67,0,0,1-.12-0.77l1.13-2.27Z" transform="translate(-298 -387.99)"/><path class="cls-1" d="M313.23,392.66a0.59,0.59,0,0,1-.54-0.69V389.3h-2.63a0.78,0.78,0,0,1-.8-0.64,0.66,0.66,0,0,1,.66-0.67h3.31a0.74,0.74,0,0,1,.77.63V392A0.78,0.78,0,0,1,313.23,392.66Z" transform="translate(-298 -387.99)"/><path class="cls-1" d="M307.93,394.66a0.66,0.66,0,0,1-.47-0.2,0.67,0.67,0,0,1,0-.94l5.3-5.33a0.66,0.66,0,0,1,.94,0,0.67,0.67,0,0,1,0,.94l-5.3,5.33A0.66,0.66,0,0,1,307.93,394.66Z" transform="translate(-298 -387.99)"/></svg>