<svg id="Слой_1" data-name="Слой 1" xmlns="http://www.w3.org/2000/svg" width="59" height="52" viewBox="0 0 42.48 37.57"><defs><style>.cls-1{fill:none;}.cls-2{fill:#edd077;}.cls-3{fill:#fff;}</style></defs><title>car-icon</title><circle class="cls-1" cx="10.38" cy="26.03" r="2.4"/><path class="cls-1" d="M142.55,142.76a0.72,0.72,0,0,0,1,0l3.09-3a0.72,0.72,0,1,0-1-1l-2.58,2.51L141.78,140a0.72,0.72,0,0,0-1,1Z" transform="translate(-113.04 -134.8)"/><circle class="cls-1" cx="32.68" cy="26.03" r="2.4"/><path class="cls-1" d="M146.76,171.15H151a0.8,0.8,0,0,0,.62-0.22,1.48,1.48,0,0,0,.29-0.92V156.06a3.18,3.18,0,0,0-.79-1.9H117.42a3.18,3.18,0,0,0-.8,1.9V170a1.44,1.44,0,0,0,.29.95,0.8,0.8,0,0,0,.62.22h4.27a2,2,0,0,0,1.65-1.72v-2.77h21.65v2.77A2,2,0,0,0,146.76,171.15Zm-23.33-6.84a3.48,3.48,0,1,1,3.48-3.48A3.49,3.49,0,0,1,123.43,164.31Zm18.82-3.48a3.48,3.48,0,1,1,3.48,3.48A3.49,3.49,0,0,1,142.24,160.83Z" transform="translate(-113.04 -134.8)"/><path class="cls-2" d="M143.71,146.69a5.95,5.95,0,1,0-5.95-5.95A6,6,0,0,0,143.71,146.69Zm-3-6.74a0.72,0.72,0,0,1,1,0l1.28,1.28,2.58-2.51a0.72,0.72,0,1,1,1,1l-3.09,3a0.72,0.72,0,0,1-1,0L140.76,141A0.72,0.72,0,0,1,140.76,140Z" transform="translate(-113.04 -134.8)"/><path class="cls-3" d="M149.21,160.83a3.48,3.48,0,1,0-3.48,3.48A3.49,3.49,0,0,0,149.21,160.83Zm-5.88,0a2.4,2.4,0,1,1,2.4,2.4A2.4,2.4,0,0,1,143.33,160.83Z" transform="translate(-113.04 -134.8)"/><path class="cls-3" d="M123.43,157.35a3.48,3.48,0,1,0,3.48,3.48A3.49,3.49,0,0,0,123.43,157.35Zm0,5.88a2.4,2.4,0,1,1,2.4-2.4A2.4,2.4,0,0,1,123.43,163.23Z" transform="translate(-113.04 -134.8)"/><path class="cls-3" d="M152.25,151.3c1.13,0,3.27-.58,3.27-2.79s-2.09-2.91-3.22-3h-2.94v1.22h2.89c0.08,0,2,.19,2,1.77s-2,1.56-2.05,1.56H149.8v2.79l0.09,0.07H118.67l0.09-.07v-2.79h-2.44c-0.08,0-2.05,0-2.05-1.56s1.81-1.75,2-1.77H121v-1.47a5.18,5.18,0,0,1,1.83-3.82c3.76-3.25,12.08-2.5,12.17-2.5l0.25,0,0.12-1.22-0.25,0c-0.36,0-8.89-.84-13.09,2.79a6.39,6.39,0,0,0-2.26,4.72v0.28h-3.54c-1.1.09-3.17,0.83-3.17,3s2.14,2.79,3.27,2.79h1.22v1c-0.6.52-2.13,2-2.13,3.79V170a2.64,2.64,0,0,0,.63,1.82,2,2,0,0,0,1.51.6h4.27a3.2,3.2,0,0,0,2.87-2.94v-1.55h19.2v1.55a3.2,3.2,0,0,0,2.87,2.94H151a2,2,0,0,0,1.51-.6,2.65,2.65,0,0,0,.63-1.79V156.06c0-1.77-1.53-3.27-2.13-3.79v-1h1.22Zm-28.79,15.36v2.77a2,2,0,0,1-1.65,1.72h-4.27a0.8,0.8,0,0,1-.62-0.22,1.44,1.44,0,0,1-.29-0.95V156.06a3.18,3.18,0,0,1,.8-1.9h33.72a3.18,3.18,0,0,1,.79,1.9V170a1.48,1.48,0,0,1-.29.92,0.8,0.8,0,0,1-.62.22h-4.27a2,2,0,0,1-1.65-1.72v-2.77H123.46Z" transform="translate(-113.04 -134.8)"/></svg>