<svg id="Слой_1" data-name="Слой 1" xmlns="http://www.w3.org/2000/svg" width="56" height="51" viewBox="0 0 38.39 34.3"><defs><style>.cls-1{fill:none;}.cls-2{fill:#f6d174;}.cls-3{fill:#fff;}</style></defs><title>case-icon</title><path class="cls-1" d="M459.7,166.86v2.7h2.7a1.92,1.92,0,0,0,1.92-1.92v-2.7h-2.7A1.92,1.92,0,0,0,459.7,166.86Z" transform="translate(-427.1 -136.43)"/><path class="cls-1" d="M431,164.94h-2.7v2.7a1.92,1.92,0,0,0,1.92,1.92h2.7v-2.7A1.92,1.92,0,0,0,431,164.94Z" transform="translate(-427.1 -136.43)"/><rect class="cls-1" x="6.97" y="31.79" width="24.45" height="1.33"/><rect class="cls-1" x="1.17" y="12.33" width="1.33" height="15.01"/><polygon class="cls-1" points="23.9 3.68 23.9 2.51 23.9 1.17 14.48 1.17 14.48 2.51 14.48 3.68 14.48 5.36 23.9 5.36 23.9 3.68"/><path class="cls-1" d="M432.9,145.67V143h-2.7a1.92,1.92,0,0,0-1.92,1.92v2.7H431A1.92,1.92,0,0,0,432.9,145.67Z" transform="translate(-427.1 -136.43)"/><path class="cls-1" d="M462.4,143h-2.7v2.7a1.92,1.92,0,0,0,1.92,1.92h2.7v-2.7A1.92,1.92,0,0,0,462.4,143Z" transform="translate(-427.1 -136.43)"/><path class="cls-1" d="M463,159.34a0.59,0.59,0,1,1-1.17,0V148.76h-0.19a3.1,3.1,0,0,1-3.1-3.1v-0.19h-20a0.59,0.59,0,0,1,0-1.17h20V143H434.07v1.33H436a0.59,0.59,0,1,1,0,1.17h-1.92v0.19a3.1,3.1,0,0,1-3.1,3.1h-0.19v15H431a3.1,3.1,0,0,1,3.1,3.1v0.19h24.45v-0.19a3.1,3.1,0,0,1,3.1-3.1h0.19v-1.92a0.59,0.59,0,1,1,1.17,0v1.92h1.33v-15H463v10.58Zm-27-4H445a0.65,0.65,0,1,1,0,1.29H436A0.65,0.65,0,0,1,436,155.34Zm15.88,4.73H436a0.65,0.65,0,0,1,0-1.29h15.88A0.65,0.65,0,1,1,451.84,160.07Z" transform="translate(-427.1 -136.43)"/><path class="cls-2" d="M436,156.64H445a0.65,0.65,0,1,0,0-1.29H436A0.65,0.65,0,0,0,436,156.64Z" transform="translate(-427.1 -136.43)"/><path class="cls-2" d="M451.84,158.78H436a0.65,0.65,0,0,0,0,1.29h15.88A0.65,0.65,0,1,0,451.84,158.78Z" transform="translate(-427.1 -136.43)"/><path class="cls-3" d="M462.4,141.8H452.18V137a0.59,0.59,0,0,0-.59-0.59H441a0.59,0.59,0,0,0-.59.59v4.77H430.2a3.1,3.1,0,0,0-3.1,3.1v22.75a3.1,3.1,0,0,0,3.1,3.1h32.2a3.1,3.1,0,0,0,3.1-3.1V144.89A3.1,3.1,0,0,0,462.4,141.8Zm-20.81-1.68v-2.51H451v4.19h-9.42v-1.68Zm-13.31,4.78A1.92,1.92,0,0,1,430.2,143h2.7v2.7a1.92,1.92,0,0,1-1.92,1.92h-2.7v-2.7Zm0,3.87h1.33v15h-1.33v-15Zm4.62,20.8h-2.7a1.92,1.92,0,0,1-1.92-1.92v-2.7H431a1.92,1.92,0,0,1,1.92,1.92v2.7Zm25.62,0H434.07v-1.33h24.45v1.33Zm5.79-1.92a1.92,1.92,0,0,1-1.92,1.92h-2.7v-2.7a1.92,1.92,0,0,1,1.92-1.92h2.7v2.7Zm0-3.87H463v-1.92a0.59,0.59,0,1,0-1.17,0v1.92h-0.19a3.1,3.1,0,0,0-3.1,3.1v0.19H434.07v-0.19a3.1,3.1,0,0,0-3.1-3.1h-0.19v-15H431a3.1,3.1,0,0,0,3.1-3.1v-0.19H436a0.59,0.59,0,1,0,0-1.17h-1.92V143h24.45v1.33h-20a0.59,0.59,0,0,0,0,1.17h20v0.19a3.1,3.1,0,0,0,3.1,3.1h0.19v10.58a0.59,0.59,0,1,0,1.17,0V148.76h1.33v15Zm0-16.18h-2.7a1.92,1.92,0,0,1-1.92-1.92V143h2.7a1.92,1.92,0,0,1,1.92,1.92v2.7Z" transform="translate(-427.1 -136.43)"/></svg>