<svg id="Слой_1" data-name="Слой 1" xmlns="http://www.w3.org/2000/svg" width="71" height="46" viewBox="0 0 48 32.12"><defs><style>.cls-1{fill:#eed077;}.cls-2{fill:#fff;}.cls-3{fill:none;stroke:#fff;stroke-miterlimit:10;stroke-width:1.2px;}</style></defs><title>credit-icon</title><circle class="cls-1" cx="6.49" cy="22.76" r="1.95"/><circle class="cls-1" cx="9.94" cy="22.76" r="1.95"/><path class="cls-2" d="M320.94,144.81c-0.54-1.33-11.36-6-20.88-6.09-3.84,0-8.7.75-10.32,4.59l-1.11-.47c1.49-3.52,5.45-5.39,11.43-5.32,9.06,0.06,21,4.51,22,6.84Z" transform="translate(-274.05 -137.52)"/><path class="cls-3" d="M305.35,156.14" transform="translate(-274.05 -137.52)"/><path class="cls-2" d="M302.65,166.8H276.17a2.11,2.11,0,0,1-2.11-2.11V144.88a2.11,2.11,0,0,1,2.11-2.11h27.67a2.11,2.11,0,0,1,2.11,2.11v2.8h-1.2v-2.8a0.91,0.91,0,0,0-.91-0.91H276.17a0.91,0.91,0,0,0-.91.91v19.81a0.91,0.91,0,0,0,.91.91h26.49v1.2Z" transform="translate(-274.05 -137.52)"/><path class="cls-3" d="M305.35,164.69" transform="translate(-274.05 -137.52)"/><polygon class="cls-2" points="31.89 26.7 30.69 26.7 31.89 26.64 31.89 26.7"/><rect class="cls-2" x="30.69" y="26.21" width="1.2" height="0.27"/><rect class="cls-2" x="30.69" y="18.61" width="1.2" height="7.6"/><path class="cls-3" d="M305.11,149.13" transform="translate(-274.05 -137.52)"/><rect class="cls-2" x="23.16" y="11.01" width="0.36" height="1.2"/><rect class="cls-2" x="22.97" y="11.01" width="0.19" height="1.2"/><rect class="cls-2" x="0.84" y="11.01" width="22.13" height="1.2"/><path class="cls-3" d="M305.11,154" transform="translate(-274.05 -137.52)"/><rect class="cls-2" x="0.84" y="15.91" width="18.14" height="1.2"/><path class="cls-3" d="M310.7,146.5" transform="translate(-274.05 -137.52)"/><path class="cls-2" d="M299.49,169.65c-0.85,0-2.81-.34-2.81-3.44h1.2c0,2,.92,2.24,1.61,2.24s1.33-.64,2.08-1.91a20.56,20.56,0,0,1,4.87-4,19.16,19.16,0,0,1,8.46-2.32,21.88,21.88,0,0,1-6-3.83c-2,.32-9,1.29-10.32,1.24-3.89-.15-6.24-1.71-6.44-4.27-0.22-2.8,3.17-4.22,5.2-4.82l0.34,1.15c-1.36.4-4.5,1.55-4.35,3.58,0.21,2.68,3.77,3.1,5.29,3.16,1.25,0,8.84-1,10.38-1.28l0.34-.06,0.22,0.26a19.32,19.32,0,0,0,9.44,4.84c0.75,0,1.22.1,1.3,0.1l-0.08,1.2a11.07,11.07,0,0,1-1.26-.1c-2.45-.13-8.14-0.14-11.91,2.17a21.1,21.1,0,0,0-4.46,3.56C302.19,167.83,301.11,169.65,299.49,169.65Z" transform="translate(-274.05 -137.52)"/><path class="cls-2" d="M297.69,149.71l-0.34-1.15c0.68-.2,1.15-0.29,1.15-0.29l11.69-2.35,0.24,1.18-11.7,2.35S298.29,149.53,297.69,149.71Z" transform="translate(-274.05 -137.52)"/></svg>