<svg id="Слой_1" data-name="Слой 1" xmlns="http://www.w3.org/2000/svg" width="24" height="24" viewBox="0 0 39.79 39.85"><defs><style>.cls-1{fill:#3b5998;fill-rule:evenodd;}</style></defs><title>fb-big</title><path class="cls-1" d="M70.12,377.3H40.28a5,5,0,0,0-5,5v29.88a5,5,0,0,0,5,5H70.12a5,5,0,0,0,5-5V382.28A5,5,0,0,0,70.12,377.3Zm-10,13.41H58.52A1,1,0,0,0,57.39,392v1.52h2.75l-0.54,3.73H57.39v9.94H53.56v-9.94H51.89l0-3.73h1.64v-2c0-4.75,4-4.27,4-4.27h2.58Z" transform="translate(-35.3 -377.3)"/></svg>