<svg id="Слой_1" data-name="Слой 1" xmlns="http://www.w3.org/2000/svg" width="17" height="17" viewBox="0 0 33.44 33.44"><defs><style>.cls-1{fill:#fff;}</style></defs><title>insta-icon</title><path class="cls-1" d="M73.11,306.51a12.27,12.27,0,0,0-.78-4.06,8.55,8.55,0,0,0-4.89-4.89,12.27,12.27,0,0,0-4.06-.78c-1.78-.08-2.35-0.1-6.89-0.1s-5.11,0-6.89.1a12.27,12.27,0,0,0-4.06.78,8.55,8.55,0,0,0-4.89,4.89,12.27,12.27,0,0,0-.78,4.06c-0.08,1.78-.1,2.35-0.1,6.89s0,5.11.1,6.89a12.27,12.27,0,0,0,.78,4.06,8.55,8.55,0,0,0,4.89,4.89,12.27,12.27,0,0,0,4.06.78c1.78,0.08,2.35.1,6.89,0.1s5.11,0,6.89-.1a12.27,12.27,0,0,0,4.06-.78,8.55,8.55,0,0,0,4.89-4.89,12.27,12.27,0,0,0,.78-4.06c0.08-1.78.1-2.35,0.1-6.89S73.19,308.3,73.11,306.51Zm-3,13.65a9.25,9.25,0,0,1-.58,3.1,5.54,5.54,0,0,1-3.17,3.17,9.25,9.25,0,0,1-3.1.58c-1.76.08-2.29,0.1-6.76,0.1s-5,0-6.76-.1a9.25,9.25,0,0,1-3.1-.58,5.54,5.54,0,0,1-3.17-3.17,9.25,9.25,0,0,1-.58-3.1c-0.08-1.76-.1-2.29-0.1-6.76s0-5,.1-6.76a9.25,9.25,0,0,1,.58-3.1,5.54,5.54,0,0,1,3.17-3.17,9.25,9.25,0,0,1,3.1-.58c1.76-.08,2.29-0.1,6.76-0.1s5,0,6.76.1a9.25,9.25,0,0,1,3.1.58,5.54,5.54,0,0,1,3.17,3.17,9.25,9.25,0,0,1,.58,3.1c0.08,1.76.1,2.29,0.1,6.76S70.18,318.4,70.1,320.16Z" transform="translate(-39.77 -296.69)"/><path class="cls-1" d="M56.49,304.82a8.59,8.59,0,1,0,8.59,8.59A8.59,8.59,0,0,0,56.49,304.82Zm0,14.16a5.57,5.57,0,1,1,5.57-5.57A5.57,5.57,0,0,1,56.49,319Z" transform="translate(-39.77 -296.69)"/><circle class="cls-1" cx="25.65" cy="7.79" r="2.01"/></svg>