<svg version="1.1" id="Слой_1" xmlns="http://www.w3.org/2000/svg" xmlns:xlink="http://www.w3.org/1999/xlink" x="0px" y="0px"
	 width="24px" height="24px" viewBox="0 0 24 24" enable-background="new 0 0 24 24" xml:space="preserve">
<defs><style>.cls-1{fill:#4d75a3;fill-rule:evenodd;}</style></defs>
<title>instagram-big</title>
<path class="cls-1" d="M16.41,10.978h-1.008c0.074,0.291,0.127,0.708,0.127,1.022c0,2.002-1.582,3.623-3.53,3.623S8.471,14.002,8.471,12
	c0-0.314,0.051-0.745,0.125-1.035H7.588c-0.487,0-1.046,0.535-1.046,1.035v4.53c0,0.5,0.532,1.047,1.021,1.047h8.824
	c0.486,0,1.046-0.561,1.046-1.062v-4.529C17.433,11.487,16.899,10.978,16.41,10.978z"/>
<path class="cls-1" d="M15.529,9.282h0.881c0.489,0,0.884-0.407,0.884-0.906V7.47c0-0.499-0.395-0.907-0.884-0.907h-0.881
	c-0.488,0-0.883,0.408-0.883,0.907v0.906C14.646,8.875,15.041,9.282,15.529,9.282z"/>
<path class="cls-1" d="M11.999,13.813c1.817,0,1.765-1.813,1.765-1.813s-0.139-1.813-1.765-1.813c-1.624,0-1.764,1.813-1.764,1.813
	S10.184,13.813,11.999,13.813z"/>
<path class="cls-1" d="M20.952,0H3.048c-1.657,0-3,1.343-3,3v18c0,1.656,1.343,3,3,3h17.904c1.656,0,3-1.344,3-3V3C23.952,1.343,22.608,0,20.952,0
	z M19.058,17.436c0,1-0.789,1.813-1.764,1.813H6.706c-0.974,0-1.764-0.813-1.764-1.813V6.563c0-1,0.79-1.812,1.764-1.812h10.588
	c0.974,0,1.763,0.812,1.764,1.811V17.436z"/>
</svg>
