<svg id="Слой_1" data-name="Слой 1" xmlns="http://www.w3.org/2000/svg" xmlns:xlink="http://www.w3.org/1999/xlink" width="211" height="56" viewBox="0 0 237.81 57.22"><defs><style>.cls-1{fill:#ffffff;}.cls-2{clip-path:url(#clip-path);}</style><clipPath id="clip-path" transform="translate(-31.28 -9.31)"><path class="cls-1" d="M31.28,40c0,6.14,1.14,18.95,16.84,24.54,5.7,2,6.45.9,6.45,0C54.57,63,44.3,57,44.3,47.84c0-5.37,2.71-8.8,7.18-8.8,6.11,0,6,5,9.77,4.68,3.27-.26,11.11-1.53,11.11,6.75,0,7.52-6.64,11.21-8.15,12.15-1.67,1-1.1,3.34,1.2,2.77,8.24-2.09,18.87-8.71,18.87-21.32s-9.5-16.29-13.59-16.26-4.12.81-7.61,0.81c-4.91,0-4.59-5.78-16.69-5.78-9.48,0-15.11,11-15.11,17.12m30-15.88C78.12,25,77.12,9.31,77.12,9.31c-17.35,0-15.84,14.77-15.84,14.77"/></clipPath></defs><title>logo</title><path class="cls-1" d="M31.28,40c0,6.14,1.14,18.95,16.84,24.54,5.7,2,6.45.9,6.45,0C54.57,63,44.3,57,44.3,47.84c0-5.37,2.71-8.8,7.18-8.8,6.11,0,6,5,9.77,4.68,3.27-.26,11.11-1.53,11.11,6.75,0,7.52-6.64,11.21-8.15,12.15-1.67,1-1.1,3.34,1.2,2.77,8.24-2.09,18.87-8.71,18.87-21.32s-9.5-16.29-13.59-16.26-4.12.81-7.61,0.81c-4.91,0-4.59-5.78-16.69-5.78-9.48,0-15.11,11-15.11,17.12m30-15.88C78.12,25,77.12,9.31,77.12,9.31c-17.35,0-15.84,14.77-15.84,14.77" transform="translate(-31.28 -9.31)"/><g class="cls-2"><rect class="cls-1" width="53" height="57.22"/></g><path class="cls-1" d="M119.31,43.25h-1.09c-0.92,0-1.18-.14-1.34-0.64L115.14,38h-8.29l-1.74,4.56c-0.2.5-.45,0.64-1.34,0.64h-1c-0.56,0-.67-0.25-0.5-0.73l7.28-18.59a0.78,0.78,0,0,1,.92-0.62h1.12a0.78,0.78,0,0,1,.92.59l7.28,18.62C120,43,119.87,43.25,119.31,43.25Zm-8.23-17.42h-0.17a10.65,10.65,0,0,1-.48,2.6l-2.83,7.39h6.78l-2.8-7.36A10.21,10.21,0,0,1,111.08,25.84Z" transform="translate(-31.28 -9.31)"/><path class="cls-1" d="M124.75,29.48v6.83a13.79,13.79,0,0,1-.45,3.64h0.08a12.71,12.71,0,0,1,1.51-2.52l6.1-8.29a0.66,0.66,0,0,1,.64-0.34h1.18a0.56,0.56,0,0,1,.67.67v13.1a0.56,0.56,0,0,1-.67.67h-1.18a0.56,0.56,0,0,1-.67-0.67V35.86a16.73,16.73,0,0,1,.45-3.72h-0.08a16.19,16.19,0,0,1-1.57,2.58l-6,8.2a0.73,0.73,0,0,1-.67.34H122.9a0.56,0.56,0,0,1-.67-0.67V29.48a0.56,0.56,0,0,1,.67-0.67h1.18A0.56,0.56,0,0,1,124.75,29.48Zm3.72-2.66a4.1,4.1,0,0,1-4.26-3,0.41,0.41,0,0,1,.31-0.62l0.87-.34c0.36-.11.53-0.08,0.67,0.22a2.51,2.51,0,0,0,4.84,0,0.4,0.4,0,0,1,.59-0.25l1,0.36a0.42,0.42,0,0,1,.31.62A4.15,4.15,0,0,1,128.48,26.82Z" transform="translate(-31.28 -9.31)"/><path class="cls-1" d="M137.71,46.67h-0.45c-0.45,0-.53-0.11-0.48-0.53l0.84-4.87a0.76,0.76,0,0,1,.92-0.81h1c0.7,0,.9.28,0.7,0.81L138.55,46A0.77,0.77,0,0,1,137.71,46.67Z" transform="translate(-31.28 -9.31)"/><path class="cls-1" d="M168.48,24.1V42.52a0.61,0.61,0,0,1-.73.73h-1.12a0.6,0.6,0,0,1-.73-0.73V32.42a31.32,31.32,0,0,1,.5-5.26h-0.14a30.66,30.66,0,0,1-2.24,4.7l-3.56,6.33a0.85,0.85,0,0,1-.87.53h-0.7a0.84,0.84,0,0,1-.87-0.53l-3.61-6.38a23.14,23.14,0,0,1-2.1-4.65h-0.17a30.36,30.36,0,0,1,.45,5.26V42.52a0.6,0.6,0,0,1-.73.73h-1.06a0.61,0.61,0,0,1-.73-0.73V24.1a0.61,0.61,0,0,1,.73-0.73h1a0.92,0.92,0,0,1,1,.56l6.44,11.45L165.68,24a0.89,0.89,0,0,1,1-.59h1.06A0.61,0.61,0,0,1,168.48,24.1Z" transform="translate(-31.28 -9.31)"/><path class="cls-1" d="M177.87,28.38c4,0,6.3,2,6.3,5.38v4.56c0,3.3-2.27,5.35-6.3,5.35s-6.27-2-6.27-5.35V33.76C171.59,30.43,173.92,28.38,177.87,28.38Zm0,2.27c-2.35,0-3.78,1.15-3.78,3.08v4.59c0,1.93,1.43,3.08,3.78,3.08s3.81-1.15,3.81-3.08V33.73C181.67,31.8,180.25,30.65,177.87,30.65Z" transform="translate(-31.28 -9.31)"/><path class="cls-1" d="M199.12,29.48v13.1a0.56,0.56,0,0,1-.67.67H197.3a0.56,0.56,0,0,1-.67-0.67V31.13h-5.4V34c0,7.14-2,8.65-3.95,9.58a0.55,0.55,0,0,1-.81-0.34l-0.59-1.12a0.52,0.52,0,0,1,.25-0.78c1.2-.59,2.66-1.34,2.66-7.5V29.48a0.56,0.56,0,0,1,.67-0.67h9A0.56,0.56,0,0,1,199.12,29.48Z" transform="translate(-31.28 -9.31)"/><path class="cls-1" d="M208.33,28.38c4,0,6.3,2,6.3,5.38v4.56c0,3.3-2.27,5.35-6.3,5.35s-6.27-2-6.27-5.35V33.76C202.06,30.43,204.38,28.38,208.33,28.38Zm0,2.27c-2.35,0-3.78,1.15-3.78,3.08v4.59c0,1.93,1.43,3.08,3.78,3.08s3.81-1.15,3.81-3.08V33.73C212.14,31.8,210.71,30.65,208.33,30.65Z" transform="translate(-31.28 -9.31)"/><path class="cls-1" d="M232.52,41.63v4.84a0.56,0.56,0,0,1-.67.67h-1.09a0.56,0.56,0,0,1-.67-0.67V43.25H219v3.22a0.57,0.57,0,0,1-.7.67h-1.09a0.55,0.55,0,0,1-.64-0.67V41.63c0-.53.17-0.7,0.64-0.7H218c0.92-.76,1.85-2.07,1.85-7.22V29.48a0.56,0.56,0,0,1,.67-0.67h9.24a0.56,0.56,0,0,1,.67.67V40.93h1.43A0.57,0.57,0,0,1,232.52,41.63Zm-11.65-.7h7v-9.8h-5.63v2.72C222.27,37.9,221.69,39.75,220.87,40.93Z" transform="translate(-31.28 -9.31)"/><path class="cls-1" d="M240.73,28.38c4.31,0,6.33,2.49,6.33,5.8V35.8a0.88,0.88,0,0,1-1,1h-9.13v1.34c0,2.13,1.29,3.36,3.75,3.36a4.14,4.14,0,0,0,3.89-1.93,0.69,0.69,0,0,1,1.09-.25l0.76,0.39a0.66,0.66,0,0,1,.25,1.09c-1,1.71-2.8,2.88-6,2.88-4.37,0-6.22-2.41-6.22-5.82V34.38C234.4,30.6,236.59,28.38,240.73,28.38Zm0,2.13c-2.52,0-3.84,1.34-3.84,3.53v0.81h7.67V34C244.57,31.86,243.28,30.51,240.73,30.51Z" transform="translate(-31.28 -9.31)"/><path class="cls-1" d="M263.71,41.63v4.84a0.56,0.56,0,0,1-.67.67H262a0.56,0.56,0,0,1-.67-0.67V43.25H250.44a0.56,0.56,0,0,1-.67-0.67V29.48a0.56,0.56,0,0,1,.67-0.67h1.18a0.56,0.56,0,0,1,.67.67V40.93h6.8V29.48a0.56,0.56,0,0,1,.67-0.67h1.18a0.56,0.56,0,0,1,.67.67V40.93H263A0.57,0.57,0,0,1,263.71,41.63Z" transform="translate(-31.28 -9.31)"/><path class="cls-1" d="M269.1,41.8V42c0,1.06-.34,1.4-1.43,1.4H267.5c-1.09,0-1.43-.31-1.43-1.4V41.8a1.18,1.18,0,0,1,1.43-1.43h0.17A1.18,1.18,0,0,1,269.1,41.8ZM268.9,23.2l-0.31,14.22a0.56,0.56,0,0,1-.67.67h-0.67a0.56,0.56,0,0,1-.67-0.67L266.3,23.2a0.55,0.55,0,0,1,.67-0.67h1.26A0.55,0.55,0,0,1,268.9,23.2Z" transform="translate(-31.28 -9.31)"/></svg>