<svg id="Слой_1" data-name="Слой 1" xmlns="http://www.w3.org/2000/svg" width="83" height="77" viewBox="0 0 160.24 149.27"><defs><style>.cls-1{fill:#fff;fill-rule:evenodd;}</style></defs><title>partner1</title><path class="cls-1" d="M2705.79,1611.24a53.41,53.41,0,0,0-9.54,106v-47a4,4,0,0,1,4-4h7.12a0.38,0.38,0,0,0,.38-0.38v-54.56c-0.65,0-1.31-.05-2-0.05h0Zm-10.27,45.81a6.3,6.3,0,1,1,6.3-6.3,6.3,6.3,0,0,1-6.3,6.3h0Z" transform="translate(-2625.67 -1611.24)"/><path class="cls-1" d="M2714.1,1611.89v56.49a4,4,0,0,1-4,4H2703a0.38,0.38,0,0,0-.38.38V1718c1.06,0.06,2.12.1,3.19,0.1a53.42,53.42,0,0,0,8.31-106.18h0Zm-0.34,80.19a5.63,5.63,0,1,1,5.63-5.63,5.63,5.63,0,0,1-5.63,5.63h0Zm14.88,0a5.63,5.63,0,1,1,5.63-5.63,5.63,5.63,0,0,1-5.63,5.63h0Zm14.88,0a5.63,5.63,0,1,1,5.63-5.63,5.63,5.63,0,0,1-5.63,5.63h0Z" transform="translate(-2625.67 -1611.24)"/><path class="cls-1" d="M2662.66,1755.88v-3.25H2674v-3.73h-11.34v-2.7c0-.27,0-0.48.33-0.48h11.26v-3.89h-13.18c-1.57,0-2.59,1.09-2.59,3v12.4c0,1.89,1,3,2.59,3h13.44v-3.89H2663c-0.3,0-.33-0.16-0.33-0.42h0Z" transform="translate(-2625.67 -1611.24)"/><path class="cls-1" d="M2694.25,1745.71v-3.89h-13.16c-1.58,0-2.6,1.09-2.6,3v15.35h4.3v-14c0-.23,0-0.48.32-0.48h11.14Z" transform="translate(-2625.67 -1611.24)"/><path class="cls-1" d="M2732.53,1739c-0.48,0-1-.05-1.51-0.05h-8.35c-0.53,0-1,0-1.5.05-5.66.44-7.89,3.48-7.89,9.39s2.38,8.93,7.89,9.41c0.49,0,1,.05,1.56.05h2v2.35h4.3v-2.35h2c0.53,0,1.06,0,1.54-.05,5.54-.48,7.89-3.57,7.89-9.41s-2.14-8.95-7.89-9.39h0Zm-7.83,15h-2a9.41,9.41,0,0,1-1.5-.1c-2.72-.44-3.52-2.25-3.52-5.46s0.78-5.11,3.52-5.55a10.17,10.17,0,0,1,1.57-.11h1.95V1754h0Zm7.83-.1a9.3,9.3,0,0,1-1.51.1h-2v-11.23h2a10.09,10.09,0,0,1,1.58.11c2.78,0.44,3.56,2.23,3.56,5.55s-0.82,5-3.56,5.46h0Z" transform="translate(-2625.67 -1611.24)"/><path class="cls-1" d="M2650.07,1738.46c-2.07,0-3.4,1.15-4.39,3.48l-5.78,13.81-5.89-13.81c-1-2.33-2.32-3.48-4.38-3.48-2.43,0-4,1.45-4,4.6v17.1h4.45v-16.5l5.94,13.9c0.81,1.91,2,3,3.77,3s3-1,3.8-3l6-14v16.64H2654v-17.1c0-3.15-1.5-4.6-4-4.6h0Z" transform="translate(-2625.67 -1611.24)"/><path class="cls-1" d="M2755,1741.56h-1.55c-6.72,0-9.39,3-9.39,9.42s2.72,9.48,9.42,9.48H2755c6.65,0,9.45-3.15,9.45-9.48s-2.6-9.42-9.39-9.42h0Zm0,15.08h-1.55c-3.84,0-5.08-1.84-5.08-5.6s1.08-5.66,5.14-5.66H2755c4.07,0,5.13,1.84,5.13,5.66s-1.2,5.6-5.06,5.6h0Z" transform="translate(-2625.67 -1611.24)"/><path class="cls-1" d="M2702.21,1741.36h0a3.69,3.69,0,0,0-3.59,2.49l-5.8,13-1.47,3.29H2696l1.66-4h9.05l1.72,4h4.6l-7.27-16.2a3.83,3.83,0,0,0-3.59-2.6h0Zm-3.11,11.16,2.76-6.56c0.17-.38.53-0.38,0.67,0l2.78,6.56h-6.21Z" transform="translate(-2625.67 -1611.24)"/><polygon class="cls-1" points="155.98 130.58 155.98 137.53 146.6 137.53 146.6 130.58 142.34 130.58 142.34 148.92 146.6 148.92 146.6 141.49 155.98 141.49 155.98 148.92 160.24 148.92 160.24 130.58 155.98 130.58 155.98 130.58"/></svg>