<svg id="Layer_1" data-name="Layer 1" xmlns="http://www.w3.org/2000/svg" width="135" height="16" viewBox="0 0 727.89 84.24"><defs><style>.cls-1{fill:#fff;}</style></defs><title>partner12</title><path class="cls-1" d="M130.5,338.55c-0.75-2.23-1.08-3.25-1.93-3.25s-1.32.79-1.79,1.7l-0.24.48c-5.86,9.76-19.42,15.59-36.27,15.59-12.5,0-22.93-3.82-30.17-11.05-6.8-6.8-10.54-16.47-10.54-27.24,0-22.38,16-36.85,40.85-36.85,17.9,0,29.46,6,34.35,17.82l0-.07a1.94,1.94,0,0,0,1.5,1.48c1,0,1.69-1.47,3.08-4.79l2.76-7a0.52,0.52,0,0,0-.21-0.61c-11.41-7.19-25.31-10.84-41.32-10.84-19.21,0-36.21,6-46.62,16.39A36.48,36.48,0,0,0,33,316.59a32.53,32.53,0,0,0,10.08,23.68C53.64,350.81,71.54,357.1,91,357.1c15.58,0,30.35-3.72,41.61-10.46a0.5,0.5,0,0,0,.22-0.58s-2.32-7.49-2.32-7.5" transform="translate(-33.03 -273.9)"/><path class="cls-1" d="M238.75,338.52c-1.11,0-1.94,1-2.7,2-9.12,9.25-30,11.19-46.74,11.19-5.71,0-9.62-.18-12-2.53-3.22-3.21-3.78-10.74-3.78-25.38V289.59c0.13-4.29,1-8.85,6.72-10.16l0.08,0,0.29-.11a1.41,1.41,0,0,0,1.19-1.2,1.07,1.07,0,0,0-.31-0.77,2.54,2.54,0,0,0-1.79-.46c-1.27,0-2.71.08-4.39,0.18-2.36.14-5.31,0.31-9,.31-3.4,0-5.92-.2-7.76-0.34-1.06-.07-1.9-0.14-2.54-0.14-1.48,0-2.38.21-2.82,0.65a1,1,0,0,0-.3.7c0,0.27.14,0.95,1.55,1.34,3.61,0.86,5.56,2.88,5.56,11.12v42.42c0,14.19-1.91,18.55-8.89,20.29-1.08.22-2.43,0.51-2.43,1.46a1.13,1.13,0,0,0,.3.82,2.49,2.49,0,0,0,1.8.4c0.31,0,.78,0,1.42-0.06,1.6-.11,4.28-0.29,8.59-0.29h72.79a0.51,0.51,0,0,0,.47-0.32s5.51-13.9,5.52-13.94a7.66,7.66,0,0,0,.31-1.6,1.38,1.38,0,0,0-.35-1,1.21,1.21,0,0,0-.88-0.32" transform="translate(-33.03 -273.9)"/><path class="cls-1" d="M311.31,318.31H276.39l17.93-29Zm34.74,37.54c2.32,0.06,4.53.12,6.61,0.12,1.3,0,2-.37,2-1.11,0-.48-0.42-0.7-1.45-1.24-0.29-.15-0.62-0.33-1-0.54a26.54,26.54,0,0,1-9-8.53l-42.79-68.63a1.12,1.12,0,0,0-.28-0.43,1.83,1.83,0,0,0-1.18-.56h-0.29a1.66,1.66,0,0,0-1.44,1l-38.15,58.49-0.15.22c-3.53,5.17-8.88,13-14.7,17.56a9.28,9.28,0,0,1-1.2.77c-1.08.62-2,1.16-2,1.92a0.88,0.88,0,0,0,.26.63c0.49,0.49,1.58.49,2.85,0.49,1.75,0,3.56-.06,5.31-0.13s3.55-.12,5.28-0.12,3.25,0.07,5,.12,3.43,0.13,5.2.13c1.35,0,2.68-.08,2.68-1s-0.87-1.07-2-1.46a11.65,11.65,0,0,1-2.32-1c-2.12-1.29-3.39-3.12-3.39-4.89,0-3.58,2.18-8.84,6.31-15.2l7.15-10.06h40.57c1.17,2,7.29,11.38,7.29,11.38,4.51,7.52,6.89,12.9,6.89,15.58a3.77,3.77,0,0,1-2.3,3.89c-0.41.17-.82,0.3-1.19,0.43-1,.31-1.88.61-1.88,1.49a0.72,0.72,0,0,0,.21.5,2.05,2.05,0,0,0,1.46.37c2,0,4.41-.06,7-0.12s5.38-.13,7.67-0.13,4.7,0.07,7,.13" transform="translate(-33.03 -273.9)"/><path class="cls-1" d="M389.78,312.44v-31.5h32.58c9.31,0,17,2.32,21,6.37a11.43,11.43,0,0,1,3.43,8.35,13.58,13.58,0,0,1-3.85,10c-6.07,6.07-18.22,6.77-26.84,6.77H389.78Zm82.54,41.46a8.34,8.34,0,0,1-1.81-.78c-5.72-2.7-8.36-8-10.71-14.26A30.89,30.89,0,0,0,458,335c-7.56-13.16-12.18-15.41-26.6-19.51,11.06-.62,32-4.76,32-19.15a13.27,13.27,0,0,0-4-9.83c-6.49-6.49-21.15-9.64-44.83-9.64H371.87c-2.3,0-2.88.26-3.17,0.56a0.76,0.76,0,0,0-.23.55c0,0.72.81,1.29,2.52,1.81,3.52,1.16,5.32,4.5,5.32,9.92v40.13c0,14.46-2.13,21.52-7.12,23.6l-0.86.39c-1.24.55-1.75,0.77-1.75,1.27a0.79,0.79,0,0,0,.24.56,2.45,2.45,0,0,0,1.58.43l0.68,0c1.44-.09,5.29-0.33,14.12-0.33,6.17,0,9.24.18,11.07,0.29,0.73,0,1.26.07,1.7,0.07,3.4,0,3.4-.72,3.4-1,0-.61-0.66-1-2.7-1.45-4.62-1.22-6.88-7.79-6.88-20.06V316.47h15.31c22.6,0,27.77,2.68,34.63,12.31,3.51,4.93,7.72,14.68,10,21.75l0.72,1.66c1.4,3.23,2.33,3.57,5.69,3.57h15.81c0.57,0,2,0,2-.86,0-.68-1-0.84-1.58-1" transform="translate(-33.03 -273.9)"/><path class="cls-1" d="M522.86,353.71c-6.21-2.29-6.21-10.78-6.21-21.52V289.64c0-4.52.38-9,4.95-10.14A1.48,1.48,0,0,0,523,278a0.78,0.78,0,0,0-.25-0.57c-0.37-.38-1.19-0.54-2.72-0.54-1.69,0-3.43.13-5.12,0.25s-3.38.24-5,.24c-3.4,0-5.92-.19-7.76-0.34-1.05-.08-1.89-0.15-2.54-0.15-1.5,0-2.13,0-2.52.4a1.11,1.11,0,0,0-.29.83,1.4,1.4,0,0,0,1.15,1.24l0.22,0.09c4.63,1.43,5,6,5,10.16v42.55c0,8.82-.78,18.25-6.58,21.32-0.37.22-.75,0.41-1.07,0.58-0.78.39-1.2,0.61-1.2,1.07a0.79,0.79,0,0,0,.23.56c0.3,0.31.85,0.42,2,.42,0.38,0,1,0,1.83-.06,2.14-.11,5.73-0.29,11.51-0.29,4.85,0,8.52.18,10.71,0.28,1,0.05,1.65.08,2.06,0.08,1.46,0,2.11-.26,2.11-0.86,0-.85-1.05-1.29-1.92-1.56" transform="translate(-33.03 -273.9)"/><path class="cls-1" d="M653.81,276.88c-1.54,0-3.32.12-5,.24s-3.46.24-5,.24-4-.14-6.38-0.26c-2-.11-3.92-0.22-4.94-0.22a3.71,3.71,0,0,0-2.6.74,1.22,1.22,0,0,0-.37.85c0,0.73.74,0.94,1.66,1.22a13.79,13.79,0,0,1,2,.69c2.37,1.16,7.84,5.14,7.84,16.83V336c-6.42-5.7-47.48-41.71-47.48-41.72a142.56,142.56,0,0,1-17.64-17,0.5,0.5,0,0,0-.4-0.18c-1.84.08-6.59,0.24-10.86,0.24-2.1,0-5-.18-7.39-0.31-1.54-.09-2.76-0.17-3.35-0.17a2.87,2.87,0,0,0-2.08.52,1.14,1.14,0,0,0-.32.83c0,0.67,1,1.12,1.67,1.33,6.12,1.77,7.32,5.55,7.48,12.34v41.45c0,10.6-1.52,15.28-6,18.57a14.63,14.63,0,0,1-3.7,1.67c-1.44.51-2.33,0.81-2.33,1.52a0.81,0.81,0,0,0,.24.57,2.63,2.63,0,0,0,1.87.42c0.75,0,2.64-.06,4.85-0.14,2.89-.1,6.19-0.22,7.91-0.22,3.3,0,6.37.15,8.62,0.25,1.32,0.07,2.34.11,3,.11,0.41,0,1.66,0,1.66-1,0-.7-0.59-0.94-1.42-1.27a19.21,19.21,0,0,1-1.91-.87c-3.06-1.51-7.13-4.92-7.13-17.08V288.2c17.3,14,39.36,33.35,65.61,58.44,3.58,3.41,6,5.88,7.73,7.68,2.79,2.85,3.73,3.82,4.81,3.82h0.29c0.58,0,2,0,2-12v-49c0-13,4.29-16,7.51-17.06,1.8-.68,2.65-1.08,2.65-1.8a1.13,1.13,0,0,0-.34-0.77,3.78,3.78,0,0,0-2.63-.7" transform="translate(-33.03 -273.9)"/><path class="cls-1" d="M736.11,311.65L719,309l-2.11-.35c-10.14-1.63-25.48-4.1-25.48-14.5,0-11.32,12.86-15.33,23.87-15.33,11.83,0,30.9,3.74,34.94,14.06,0.13,0.31.22,0.59,0.34,0.87,0.45,1.24.74,2,1.44,2s1.19-.87,2.06-2.85l4.06-9.91a0.49,0.49,0,0,0-.25-0.65c-10.62-4.65-25.25-7.53-38.22-7.53-15.87,0-29,4-36,11a18.41,18.41,0,0,0-5.7,13.39c0,9.72,10,16.27,29.73,19.48l18.27,3c11.33,1.93,21.48,4.52,21.48,14.86a12.38,12.38,0,0,1-3.83,9c-6.16,6.16-18.37,8.36-27.72,8.36-14.58,0-35.89-5.75-37.67-18.59a1.6,1.6,0,0,0-3.13-.18l-4.78,12.18a2.34,2.34,0,0,0-.34.93c0,0.39.25,0.65,1.77,1.19,10.68,4.23,27.94,8.5,42.4,8.5,18.09,0,46.8-7.13,46.8-26.25,0-10.55-8.58-17.5-24.8-20.08" transform="translate(-33.03 -273.9)"/></svg>