<svg id="Слой_1" data-name="Слой 1" xmlns="http://www.w3.org/2000/svg" width="111" height="27" viewBox="0 0 148.96 35.14"><defs><style>.cls-1{fill:#fff;}</style></defs><title>partner10</title><path class="cls-1" d="M8.61,30c-2.47,3-5.9,5.18-7.4,5.18-1,0-1.74-1.11-.73-5.86,1.69-7.94,3.39-15.87,5-23.81C6,3.34,5.71,3.05,3.53,3H2.17l0.2-1.21C6.14,1.41,8.9.1,9.53,0.1,10,0.1,10,.54,9.82,1.55q-3,14-6,28.31c-0.29,1.4-.1,1.69.19,1.69,0.53,0,2.47-1.26,3.82-2.66L8.61,30" transform="translate(0 -0.1)"/><path class="cls-1" d="M31.89,30.11c-2.66,3.24-5.9,5-7.11,5-0.92,0-1.55-.73-0.82-4.26l1-4.6H24.77A33.35,33.35,0,0,1,18.53,33c-1.6,1.31-3.19,2.18-4.5,2.18s-2.81-1.6-2.81-5.42c0-4.89,2.28-10.21,5.81-13.16,2.47-2,6-3.73,9.05-3.73a13.43,13.43,0,0,1,3,.39,9,9,0,0,0,1.84.29L31,13.7c-0.77,3-2.23,9.58-3.34,15.73-0.29,1.64-.14,2.08.1,2.08,0.44,0,2.08-1.16,3.53-2.57l0.58,1.16m-6.34-7.55c0.58-1.89,1.31-5.37,1.6-6.92A7.84,7.84,0,0,0,24,15a6.17,6.17,0,0,0-3.48,1c-3.29,2.42-5.23,8.08-5.23,12.88,0,2.18.58,3.19,1.31,3.19C18.43,32,24,25.94,25.55,22.56Z" transform="translate(0 -0.1)"/><path class="cls-1" d="M61.51,35.24V33.69C63.64,33.4,64,33.21,64,30.16V21.83c0-4-1.84-4.79-3.39-4.79a5.74,5.74,0,0,0-3.73,1.65c0,0.53.1,1.21,0.1,1.93V30.4c0,2.76.34,3,2.52,3.29v1.55H48.3V33.69c2.27-.29,2.47-0.44,2.47-3.29V21.59c0-3.49-1.55-4.55-3.34-4.55a6.08,6.08,0,0,0-3.73,1.55V30.4c0,2.76.34,3,2.18,3.29v1.55H34.5V33.69c2.81-.34,3-0.48,3-3.53V20c0-2.81-.19-3.24-2.47-3.58V15a76.81,76.81,0,0,0,8.52-1.84V16.9c1.06-.77,2-1.45,3-2.08a7.8,7.8,0,0,1,4.21-1.55A5.78,5.78,0,0,1,56.38,17c1.21-.87,2.32-1.6,3.48-2.42a6.87,6.87,0,0,1,3.77-1.35c4.21,0,6.53,2.85,6.53,7.79V30.4c0,2.76.19,2.9,2.71,3.29v1.55H61.51" transform="translate(0 -0.1)"/><path class="cls-1" d="M97.19,23.67c-0.13,7.79-5.76,11.56-11.43,11.47-7.6-.13-11.23-5.71-11.14-11A11.43,11.43,0,0,1,86.39,12.59a10.66,10.66,0,0,1,10.8,11.08M81.58,22.53c-0.1,6,1.7,10.68,4.75,10.73,1.84,0,3.79-1.1,3.92-8.26,0.12-6.73-1.51-10.48-4.61-10.53C83.65,14.43,81.67,17,81.58,22.53Z" transform="translate(0 -0.1)"/><path class="cls-1" d="M125.11,33.25a77.76,77.76,0,0,0-9.53,1.89V32.33l-3,1.89a4.51,4.51,0,0,1-2.42.87,10.18,10.18,0,0,1-9.87-10.6c0-6.58,5.71-12,13.26-12,0.39,0,.92.1,2,0.24V6.92c0-2.61-.29-2.81-3.24-3.19V2.23A62.11,62.11,0,0,0,121.77.49V28.41c0,2.76.24,3,2.27,3.19l1.07,0.1v1.55m-8.67-15.88a3.85,3.85,0,0,0-3.53-2.51c-1.11,0-4.84,1.26-4.84,8.61,0,6,3.48,8.23,5.71,8.23a4.36,4.36,0,0,0,2.66-.77V17.37Z" transform="translate(0 -0.1)"/><path class="cls-1" d="M143.69,35.14a4.31,4.31,0,0,1-3-1,3.91,3.91,0,0,1-1.21-1.79c-1.84,1.21-4.11,2.81-5.08,2.81a6.34,6.34,0,0,1-6.54-6.2c0-2.52,1.16-3.68,3.68-4.65,2.86-1.06,6.58-2.23,7.7-3.19V19.65c0-3-1.16-4.74-2.9-4.74a2,2,0,0,0-1.64.87,9.62,9.62,0,0,0-1.36,3.34,1.91,1.91,0,0,1-2,1.65c-1.31,0-3-1.16-3-2.42,0-.87.63-1.5,1.69-2.32a24.84,24.84,0,0,1,8-3.44,7.48,7.48,0,0,1,4.74,1.4c2.08,1.6,2.52,3.68,2.52,6.39v8c0,2.27.72,2.86,1.55,2.86a3.91,3.91,0,0,0,1.65-.39L149,32.38l-5.27,2.76M139.29,23c-0.87.48-1.65,1-2.66,1.5-1.5.77-2.27,1.65-2.27,3.34,0,2.66,1.79,3.68,2.9,3.68a3.09,3.09,0,0,0,2-.77V23Z" transform="translate(0 -0.1)"/></svg>