<svg id="Layer_1" data-name="Layer 1" xmlns="http://www.w3.org/2000/svg" width="124" height="29" viewBox="0 0 380.43 87.13"><defs><style>.cls-1{fill:#fff;}</style></defs><title>partner5</title><path class="cls-1" d="M138.41,128.09a6.66,6.66,0,0,0-6,3.53c-0.77,1.24-2.13,4.08-2.13,10.11s1.3,8.92,2.13,10.28a6.74,6.74,0,0,0,11.93,0c0.83-1.36,2.12-4.25,2.12-10.28s-1.36-8.86-2.12-10.11C142.66,128.92,140.6,128.09,138.41,128.09Z" transform="translate(-58.23 -98.29)"/><path class="cls-1" d="M99,128.68H92.89v10.87h6c1.42,0,3.48-.05,5-1.48a5.62,5.62,0,0,0,1.65-4,5.29,5.29,0,0,0-1.54-3.9A7.21,7.21,0,0,0,99,128.68Z" transform="translate(-58.23 -98.29)"/><path class="cls-1" d="M296.05,133.76a4.71,4.71,0,0,0,1.59,3.78,7.51,7.51,0,0,0,4.73,1.3h7.27V128.68h-7.15a9.14,9.14,0,0,0-4.61,1.06A4.49,4.49,0,0,0,296.05,133.76Z" transform="translate(-58.23 -98.29)"/><path class="cls-1" d="M58.23,98.29v87.13H344.3V98.29H58.23Zm54.09,43.44c-4,5-9,4.91-12.64,4.91H92.89V162.1H83.44V121.6h15c3.6,0,7.68.11,11.16,2.3a11.18,11.18,0,0,1,5.38,10A12.27,12.27,0,0,1,112.32,141.73Zm38.26,16.42a18.55,18.55,0,0,1-24.34,0c-3.83-3.6-6.08-9.45-6.08-16.29,0-7.79,2.89-13.47,6.5-16.71a18.76,18.76,0,0,1,23.5,0c3.61,3.25,6.5,8.92,6.5,16.71C156.66,148.7,154.41,154.55,150.58,158.15Zm23.78-7.26c1.77,3.9,4.61,4.72,6.62,4.72a6.51,6.51,0,0,0,5.61-2.89,12.5,12.5,0,0,0,1.89-5.43l8.68,0.83a16.66,16.66,0,0,1-4.78,10.16A15.76,15.76,0,0,1,181,162.7a17,17,0,0,1-15.24-8.5,26.31,26.31,0,0,1-3-12.4c0-6.92,2.42-12.64,5.85-16.07A16.68,16.68,0,0,1,181,121a16.23,16.23,0,0,1,11.51,4.31,16.57,16.57,0,0,1,4.61,10.45l-8.86.7a11.87,11.87,0,0,0-1.36-4.84,6.07,6.07,0,0,0-5.9-3.53c-3.13,0-5.2,1.47-6.68,4.67-1.06,2.36-1.42,5.08-1.42,8.91C172.95,145.75,173.31,148.64,174.36,150.89Zm40.09,0c1.77,3.9,4.61,4.72,6.62,4.72a6.51,6.51,0,0,0,5.61-2.89,12.49,12.49,0,0,0,1.89-5.43l8.68,0.83a16.65,16.65,0,0,1-4.78,10.16,15.75,15.75,0,0,1-11.4,4.43,16.94,16.94,0,0,1-15.24-8.51,26.29,26.29,0,0,1-3-12.4c0-6.92,2.42-12.64,5.85-16.07a16.68,16.68,0,0,1,12.4-4.72,16.25,16.25,0,0,1,11.52,4.31,16.54,16.54,0,0,1,4.6,10.45l-8.85.7a12,12,0,0,0-1.36-4.84,6.08,6.08,0,0,0-5.91-3.53c-3.13,0-5.2,1.47-6.67,4.67-1.06,2.36-1.42,5.08-1.42,8.91C213,145.75,213.39,148.64,214.46,150.89Zm62.88,11.22h-9.45V141a34.9,34.9,0,0,1,.3-5.26,19.45,19.45,0,0,1-1.6,3.66l-12.22,19.43v3.25h-9.45V121.6h9.45v21a38.58,38.58,0,0,1-.3,5,16.36,16.36,0,0,1,1.6-3.67l12.23-19.49V121.6h9.45v40.51Zm41.75,0h-9.45V145.93h-5.55l-8.33,16.18H285.48l9.8-17.19a13.67,13.67,0,0,1-5.73-3c-1.47-1.41-3-4-3-8.09a11.4,11.4,0,0,1,4.61-9.68c3.07-2.24,6.85-2.6,10.16-2.6h17.72v40.51Z" transform="translate(-58.23 -98.29)"/><path class="cls-1" d="M350.39,98.29V185.1h88.27V98.29H350.39Zm54.4,76.49H388.45V134.86l16.34-8.15v48.07Zm0-51.75L372,139.38V121.83l32.75-16.34V123Z" transform="translate(-58.23 -98.29)"/></svg>