<?xml version="1.0" encoding="utf-8"?>
<!-- Generator: Adobe Illustrator 19.2.0, SVG Export Plug-In . SVG Version: 6.00 Build 0)  -->
<svg version="1.1" id="Слой_1" xmlns="http://www.w3.org/2000/svg" xmlns:xlink="http://www.w3.org/1999/xlink" x="0px" y="0px"
	 viewBox="0 0 800 800" width="76" height="137" style="enable-background:new 0 0 800 800;" xml:space="preserve">
<style type="text/css">
	.st0{fill:#FFFFFF;}
</style>
<polygon class="st0" points="242.1,459 315.4,459 415.8,176.9 457.3,298 390.3,298 366.5,367.1 481.5,367.4 514.5,459 587,459 
	451.9,73.7 378.4,73.7 "/>
<path class="st0" d="M215.7,537.2L415.8,785l199.8-247.8H215.7z M405.6,670h-25.2v-85.4h25.2V670z M424.7,670v-85.4h24.8V670H424.7z
	"/>
<path class="st0" d="M243.2,479.4H239L221.6,517l9.8,0.3l2.3-4.3h14.8l1.7,4h10.3L243.2,479.4z M237,504.3l4-9.4l4.2,9.4H237z"/>
<path class="st0" d="M590.2,479.2H586l-17.8,37.9l10.1,0l2.3-4.3h14.8l1.7,4h10.3L590.2,479.2z M584,504.1l4-9.4l4.2,9.4H584z"/>
<polygon class="st0" points="299.1,517.3 299.1,479.7 302.8,479.7 317.4,495.8 332.5,479.7 336.1,479.7 336.1,517.3 325.9,517.3 
	325.8,501.6 317.6,509.5 309,501.2 308.9,517.3 "/>
<polygon class="st0" points="379.4,479.7 403.1,479.7 403.1,488.3 389.1,488.3 389.1,493.3 401.9,493.3 402.1,502.7 389.3,502.7 
	389.3,508.7 403.1,508.7 403.1,517.3 379.4,517.3 "/>
<path class="st0" d="M464.3,479.7h-18.5v37.6h19c0,0,14.1-3.4,14-18.8C478.5,483.1,464.3,479.7,464.3,479.7z M462.2,508.6h-6.7
	v-19.7h6.7c0,0,6.8,2.5,6.8,10.1C469.1,506.7,462.2,508.6,462.2,508.6z"/>
<polygon class="st0" points="516.5,479.7 535.2,479.7 535.2,488.4 531,488.4 531,508.9 535.5,508.9 535.5,517.3 516.5,517.3 
	516.5,508.8 520.7,508.7 520.7,488.6 516.5,488.6 "/>
</svg>
