<svg id="Layer_2" data-name="Layer 2" xmlns="http://www.w3.org/2000/svg" width="70" height="70" viewBox="0 0 241.04 241.03"><defs><style>.cls-1,.cls-3{fill:#6b9edb;}.cls-1{stroke:#fff;stroke-linecap:round;stroke-linejoin:round;stroke-width:2px;}.cls-1,.cls-2,.cls-3{fill-rule:evenodd;}.cls-2{fill:#fff;}</style></defs><title>partner13</title><path class="cls-1" d="M254.59,140.1A119.52,119.52,0,1,0,135.08,259.61,119.51,119.51,0,0,0,254.59,140.1h0Z" transform="translate(-14.55 -19.58)"/><path class="cls-2" d="M251.71,140.1A116.63,116.63,0,1,0,135.08,256.73,116.63,116.63,0,0,0,251.71,140.1h0Z" transform="translate(-14.55 -19.58)"/><path class="cls-3" d="M84.6,74.54a8.81,8.81,0,0,0-14-6.06c-0.21.15-.4,0.33-0.6,0.48a8.32,8.32,0,0,0,.19-4.37,7.9,7.9,0,0,0-13.84-3.08l-1.52,1.9-7.93,9.9-6.81,8.5-0.45.56a3.32,3.32,0,0,0,.31.26l2.64,2.12,10,8,9.89,7.92,2.52,2a0.59,0.59,0,0,0,.27.18l0.5-.62,6.79-8.48L80.7,83.6c1.4-1.75,2.95-3.4,3.61-5.59a9,9,0,0,0,.29-3.47h0ZM55.4,84.09L51.29,80.8l-1.57-1.26s0.54-.69.58-0.73L58,69.23a6.21,6.21,0,0,1,2.31-2.17,3.68,3.68,0,0,1,4.1.92,3.72,3.72,0,0,1,.83,3.34A8,8,0,0,1,63.48,74l-4,5-4,5h0Zm20.27-3.93-2.6,3.25-7.15,8.93a0.29,0.29,0,0,1-.09.1l-0.37-.29-1.94-1.56-3.37-2.7,6.48-8.1,3.16-3.94a3.9,3.9,0,0,1,3-1.65,3.64,3.64,0,0,1,2.93,6h0Z" transform="translate(-14.55 -19.58)"/><path class="cls-3" d="M208,140.1a72.9,72.9,0,1,0-72.9,72.9A72.9,72.9,0,0,0,208,140.1h0Z" transform="translate(-14.55 -19.58)"/><path class="cls-2" d="M135.07,70.9a71.11,71.11,0,0,0-69.2,69.2h69.2V70.9h0Z" transform="translate(-14.55 -19.58)"/><path class="cls-2" d="M135.07,209.3a71.11,71.11,0,0,0,69.21-69.2H135.07v69.2h0Z" transform="translate(-14.55 -19.58)"/><polygon class="cls-3" points="198.28 40.74 192.21 35.1 172.49 61.01 178.56 66.65 200.19 56.73 185.77 75.66 189.95 82.83 219.54 69.25 215.37 62.08 198.29 69.92 210.43 53.97 205.12 47.34 186.9 55.69 198.28 40.74 198.28 40.74"/><polygon class="cls-3" points="109.79 20.89 117.48 42.76 123.56 42.76 131.25 20.89 132.06 42.76 140.57 43.97 139.35 11.17 128.42 9.95 120.52 33.04 112.62 9.95 101.69 11.17 100.47 43.97 108.98 42.76 109.79 20.89 109.79 20.89"/></svg>