<svg id="Layer_1" data-name="Layer 1" xmlns="http://www.w3.org/2000/svg" width="112" height="80" viewBox="0 0 362.7 260.43"><defs><style>.cls-1{fill:#fff;}</style></defs><title>partner16</title><polygon class="cls-1" points="170.42 179.59 154.65 179.59 154.65 102.31 170.42 102.31 170.42 179.59 170.42 179.59"/><polygon class="cls-1" points="189.12 179.59 173.34 179.59 173.34 86.37 189.12 86.37 189.12 179.59 189.12 179.59"/><polygon class="cls-1" points="192.03 179.59 207.8 179.59 207.8 102.31 192.03 102.31 192.03 179.59 192.03 179.59"/><polygon class="cls-1" points="133.03 105.36 117.27 91.59 117.27 51.96 133.03 51.96 133.03 105.36 133.03 105.36"/><polygon class="cls-1" points="151.73 122.58 135.96 107.38 135.96 34.45 151.73 34.45 151.73 122.58 151.73 122.58"/><polygon class="cls-1" points="170.42 99.89 154.65 99.89 154.65 17.23 170.42 17.23 170.42 99.89 170.42 99.89"/><polygon class="cls-1" points="189.12 82.96 173.34 82.96 173.34 0 189.12 0 189.12 82.96 189.12 82.96"/><polygon class="cls-1" points="229.41 105.36 245.17 91.59 245.17 51.96 229.41 51.96 229.41 105.36 229.41 105.36"/><polygon class="cls-1" points="210.72 122.58 226.49 107.38 226.49 34.45 210.72 34.45 210.72 122.58 210.72 122.58"/><polygon class="cls-1" points="192.03 99.89 207.8 99.89 207.8 17.23 192.03 17.23 192.03 99.89 192.03 99.89"/><path class="cls-1" d="M443.7,390.29H431.48V365.92c0-2.2-.46-3.79-1.4-4.8s-3-1.51-6.21-1.51H417c-3,0-5,.55-6,1.65a6.64,6.64,0,0,0-1.51,4.66v24.37H397.27V362q0-5.76,3.14-8.61c2.1-1.9,5.83-2.84,11.25-2.84h17.87c5.44,0,9.17,1,11.17,2.95s3,4.8,3,8.51v28.28h0Z" transform="translate(-239 -129.86)"/><path class="cls-1" d="M462.73,374.73a7.25,7.25,0,0,0,1.55,4.78c1,1.09,2.95,1.64,5.91,1.64h26.35v9H464.88c-5.34,0-9.05-.93-11.12-2.83s-3.1-4.74-3.1-8.56V362c0-3.82,1-6.67,3.1-8.56s5.78-2.82,11.12-2.82h31.66v9H470.2c-3,0-4.91.55-5.91,1.63a6.73,6.73,0,0,0-1.55,4.5h33.81v9H462.73Z" transform="translate(-239 -129.86)"/><path class="cls-1" d="M335.19,387.24q-3,2.94-11.16,2.95H306.15q-8.1,0-11.24-2.85t-3.14-8.61V361.84q0-5.76,3.14-8.61t11.24-2.85H324q8.17,0,11.16,2.95c2,2,3,4.81,3,8.51v16.88q0,5.55-3,8.51h0ZM326,365.75c0-2.19-.47-3.79-1.4-4.8s-3-1.51-6.21-1.51h-6.85c-3,0-5,.55-6,1.65a6.68,6.68,0,0,0-1.5,4.66v9.06a6.67,6.67,0,0,0,1.5,4.67c1,1.1,3,1.65,6,1.65h6.85c3.21,0,5.26-.5,6.14-1.51a7.6,7.6,0,0,0,1.47-4.74v-9.13h0Z" transform="translate(-239 -129.86)"/><path class="cls-1" d="M515.53,374.67v15.52H503.38l-0.06-28.34q0-5.76,3.14-8.61t11.25-2.85h32v9.06H523.08c-3,0-5,.54-6,1.64a6.79,6.79,0,0,0-1.56,4.52h34.21v9.05H515.53Z" transform="translate(-239 -129.86)"/><polygon class="cls-1" points="333.1 229.58 316.34 229.58 316.34 220.52 362.7 220.52 362.7 229.58 345.25 229.58 345.25 260.33 333.1 260.33 333.1 229.58 333.1 229.58"/><path class="cls-1" d="M285.72,390.17l-13.53-13.7c4.63-.16,7.85-1.11,9.66-2.89q3-2.94,3-8.47V362q0-5.52-3-8.46c-2-2-5.65-2.93-11-2.93H239v39.57h12V376.5h7.54L272,390.17h13.69ZM251,359.59H268.8a4,4,0,1,1,0,7.92H251v-7.92h0Z" transform="translate(-239 -129.86)"/><path class="cls-1" d="M387.59,368.58c-1.8-1.84-5.12-2.78-9.83-2.92H359a3.08,3.08,0,1,1,0-6.15h29.87v-9H358.93q-8,0-11.12,2.82-2.84,2.6-3.07,7.58c-0.6,14,8.08,13.88,12.79,14h18.78a3.09,3.09,0,1,1,0,6.17h-30v9h30q8,0,11.12-2.82c1.89-1.74,2.9-4.25,3.07-7.58,0-.3.63-7.47-3-11.1h0Z" transform="translate(-239 -129.86)"/></svg>