<?xml version="1.0" encoding="utf-8"?>
<!-- Generator: Adobe Illustrator 19.2.0, SVG Export Plug-In . SVG Version: 6.00 Build 0)  -->
<svg version="1.1" id="Capa_1" xmlns="http://www.w3.org/2000/svg" xmlns:xlink="http://www.w3.org/1999/xlink" x="0px" y="0px"
	 viewBox="0 0 637.8 396.9" width="150" height="87" style="enable-background:new 0 0 637.8 396.9;" xml:space="preserve">
<style type="text/css">
	.st0{fill:#FFFFFF;}
	.st1{fill-rule:evenodd;clip-rule:evenodd;fill:#FFFFFF;}
	.st2{clip-path:url(#SVGID_2_);fill-rule:evenodd;clip-rule:evenodd;fill:#FFFFFF;}
	.st3{clip-path:url(#SVGID_4_);fill-rule:evenodd;clip-rule:evenodd;fill:#FFFFFF;}
	.st4{clip-path:url(#SVGID_6_);fill-rule:evenodd;clip-rule:evenodd;fill:#FFFFFF;}
</style>
<path class="st0" d="M319,29.4c-60.9,0-110.2,49.3-110.2,110.2c0,60.9,49.3,110.2,110.2,110.2c60.9,0,110.2-49.3,110.2-110.2
	C429.2,78.8,379.9,29.4,319,29.4z M319,236c-53.2,0-96.4-43.2-96.4-96.4s43.2-96.4,96.4-96.4s96.4,43.2,96.4,96.4S372.3,236,319,236
	z"/>
<g>
	<path class="st1" d="M38.7,308.1l15.5,42.2c0.9,2.4,1.7,4.8,2.6,7l2.3,6.8h1.4c2.3-6.6,2.4-6.8,3.2-9c0.9-2.4,1.2-3.4,1.5-4.4
		l15.8-42.4l0.8,49.3v0.5c0,4.5-1.4,5.5-7.9,5.9v2.3c5.8-0.5,8.5-0.7,12-0.7c3.3,0,6.1,0.2,11.9,0.7v-2.3c-6.8-0.4-7.9-1.3-7.9-6.3
		l-1-46.8l-0.1-0.8c-0.3-3.9,1.5-5.1,7.9-5.6v-2.3c-3.5,0.3-5.1,0.4-7.5,0.4c-2.7,0-4.9-0.1-9.1-0.5l-17.9,48.1l-17.7-48.1
		c-3.6,0.4-5.7,0.5-9,0.5c-2.6,0-4.2-0.1-7.8-0.4v2.4c2.8,0.1,4.2,0.4,5.5,1c1.7,0.7,2.6,2.4,2.4,4.8l-0.1,0.6l-1.9,46.8
		c-0.3,5-1.2,5.8-7.9,6.3v2.3c4.8-0.4,6.9-0.5,9.6-0.5c2.7,0,4.8,0.1,9.3,0.5v-2.3c-6.6-0.5-7.8-1.3-7.8-5.5v-0.8L38.7,308.1
		L38.7,308.1z M136.9,351.3c-1.1,8.1-5.4,12.5-12.1,12.5c-5.1,0-8.8-2.6-10.8-7.7c-1.1-3-1.6-6.5-1.8-13.6h28.3
		c-0.3-14.3-6.6-22.4-17.3-22.4c-11.1,0-18.6,9.4-18.6,23.3c0,14.5,7.4,23.5,19.1,23.5c9.5,0,15.8-5.8,16.9-15.6H136.9L136.9,351.3z
		 M112.5,339c1-10.9,4.5-16.5,10.7-16.5c6.1,0,9.3,5.3,9.8,16.5H112.5L112.5,339z M147.2,323.4c6.7,0.1,6.8,0.3,6.8,6.2v29.6
		c0,4.1-1,4.9-6.8,5.1v1.9c4.9-0.5,7.4-0.6,10.7-0.6c3.1,0,5.6,0.1,10.7,0.6v-1.9c-5.8-0.3-6.9-1-6.9-5.1v-19.9
		c0-9.4,3.1-15.4,8.2-15.4c1.6,0,2.9,1,2.9,2.3c0,0.3,0,0.6-0.1,0.9c-0.4,1.5-0.4,1.5-0.4,2c0,1.8,1.7,3.1,3.9,3.1
		c2.5,0,4-1.8,4-4.6c0-4.5-3.4-7.7-8.3-7.7c-4.9,0-8.9,3.1-11.1,8.7c-0.1-3.8-0.3-5.3-0.9-9c-3.4,1-7.5,1.8-12.6,2.3V323.4
		L147.2,323.4z M217,319h-1.7l-2.5,4.9c-3-2.9-5.7-4-9.7-4c-11.1,0-18.8,9.7-18.8,24c0,13.8,7.4,23.1,18.6,23.1
		c8.6,0,14-5.5,15.1-15.7h-3.8c-1.1,8.4-4.7,12.6-10.6,12.6c-7.3,0-11-6.8-11-20.1c0-13.5,4.1-21.3,11.3-21.3c3.6,0,6.9,2.1,8.8,5.5
		c1,1.9,1.5,3.4,2.3,6.8h2.1V319L217,319z M258.1,351.3c-1.1,8.1-5.4,12.5-12.1,12.5c-5.1,0-8.8-2.6-10.8-7.7
		c-1.1-3-1.6-6.5-1.8-13.6h28.3c-0.3-14.3-6.6-22.4-17.3-22.4c-11.1,0-18.6,9.4-18.6,23.3c0,14.5,7.4,23.5,19.1,23.5
		c9.5,0,15.8-5.8,16.9-15.6H258.1L258.1,351.3z M233.6,339c1-10.9,4.5-16.5,10.7-16.5c6.1,0,9.3,5.3,9.8,16.5H233.6L233.6,339z
		 M312.6,362.8c-6.4-0.2-6.9-0.8-6.9-6.5v-54.9c-4.2,1.1-10,2.2-14.4,2.5v1.7c6,0,6.8,0.7,6.8,5.5v16.7c-3.5-5.7-6.3-7.4-11.4-7.4
		c-10.2,0-17.3,9.6-17.3,23.3c0,13.7,7.3,23.3,17.7,23.3c5.3,0,9-2.5,11.8-7.8c0.3,3.5,0.4,4.1,1.2,7.6c3.9-1.2,5.9-1.6,12.6-2.5
		V362.8L312.6,362.8z M287.5,323.1c7,0,10.7,7.2,10.7,21.4c0,13-3.5,19.9-10.3,19.9c-6.9,0-10.6-7.2-10.6-20.7
		C277.3,329.9,280.7,323.1,287.5,323.1L287.5,323.1z M350.3,351.3c-1.1,8.1-5.4,12.5-12.1,12.5c-5.1,0-8.8-2.6-10.8-7.7
		c-1.1-3-1.6-6.5-1.8-13.6H354c-0.3-14.3-6.6-22.4-17.3-22.4c-11.1,0-18.6,9.4-18.6,23.3c0,14.5,7.4,23.5,19.1,23.5
		c9.5,0,15.8-5.8,16.9-15.6H350.3L350.3,351.3z M325.9,339c1-10.9,4.5-16.5,10.7-16.5c6.1,0,9.3,5.3,9.8,16.5H325.9L325.9,339z
		 M362.8,367h1.6l2.3-4.2c3.6,2.7,7.2,3.9,11.5,3.9c8.8,0,15.2-5.7,15.2-13.7c0-5.5-2.6-8.7-9.7-11.8c-6.7-2.9-7.4-3.2-8.8-3.9
		c-3.9-2-5.3-3.7-5.3-6.8c0-4.4,3.9-7.8,8.9-7.8c5.9,0,9.1,3.6,10,11.2h2.1v-14.7h-1.6l-1.6,3.9c-3.3-2.2-6.1-3-9.7-3
		c-8.5,0-14.3,5.2-14.3,12.7c0,5.5,2.2,8.3,9.1,11.4c5.9,2.8,9,4.2,9.1,4.3c3.9,2,5.3,3.9,5.3,6.8c0,4.9-4.3,8.6-9.8,8.6
		c-4.5,0-8.4-2.4-10.3-6.1c-1-2-1.5-3.6-2.1-6.7h-2.1V367L362.8,367z M398.3,342.6h24.5v-4.3h-24.5V342.6L398.3,342.6z M425.8,302.4
		v2.3c6.8,0.5,7.8,1.2,7.8,6.4v46.1c0,5.1-0.8,5.8-7.8,6.4v2.3h24c7.1,0,11.1-0.9,14.9-3.3c4.9-3,7.9-8.8,7.9-14.8
		c0-8.3-4.9-14-13.4-15.7c6.9-2.7,10.4-7.4,10.4-14.1c0-4.9-2.1-9.2-5.6-12.1c-3.2-2.5-6.9-3.4-13.1-3.4H425.8L425.8,302.4z
		 M441.6,331.3v-25.9h8.1c8,0,11.4,3.9,11.4,12.8c0,4.4-1,7.7-3.1,10c-2.1,2.4-4.7,3.1-9.9,3.1H441.6L441.6,331.3z M441.6,334.2h9
		c4.9,0,8,1,10.1,3.1c2.2,2.3,3.4,6.3,3.4,10.8c0,9.5-4.8,14.8-13.2,14.8h-3.5c-4.9,0-5.8-0.8-5.8-4.9V334.2L441.6,334.2z
		 M513.3,351.3c-1.1,8.1-5.4,12.5-12.1,12.5c-5.1,0-8.8-2.6-10.8-7.7c-1.1-3-1.6-6.5-1.8-13.6h28.3c-0.3-14.3-6.6-22.4-17.3-22.4
		c-11.1,0-18.6,9.4-18.6,23.3c0,14.5,7.4,23.5,19.1,23.5c9.5,0,15.8-5.8,16.9-15.6H513.3L513.3,351.3z M488.9,339
		c1-10.9,4.5-16.5,10.7-16.5c6.1,0,9.3,5.3,9.8,16.5H488.9L488.9,339z M523.7,323.9h1.2c5.1,0.1,5.5,0.5,5.5,5.9v29.4
		c0,4.1-1,4.9-6.8,5.1v1.9c4.8-0.5,7.1-0.6,10.4-0.6c3.1,0,5.6,0.1,10.3,0.6v-1.9c-4.9-0.2-6.2-1.1-6.2-4.9v-22.9
		c0-4,0.5-6.1,1.8-7.9c1.8-2.6,4.8-4.1,8.1-4.1c3,0,5.5,1.1,6.9,3.3c1.1,1.8,1.5,3.9,1.5,8.3v23.3c0,3.8-1.2,4.8-6.3,4.9v1.9
		c4.7-0.5,7.1-0.6,10.3-0.6c3.3,0,5.7,0.1,10.5,0.6v-1.9c-5.8-0.3-6.9-1-6.9-5.1v-22.8c0-4.5-0.7-7.7-2.1-10
		c-2.4-3.9-6.8-6.2-11.8-6.2c-5.5,0-9.3,2.3-12.8,7.4c-0.2-3.5-0.6-6.7-1-8.3c-3.1,1.2-7.2,2.1-12.6,2.9V323.9L523.7,323.9z
		 M576.1,365.9h32.7l2.5-13.7h-2c-1,2.9-1.8,4.7-2.9,6.7c-2.4,3.7-4.1,4.6-9,4.6h-11.1l25.9-42.4h-31.6l-2.2,12.4h2
		c3.3-8.6,4.9-9.9,11-9.9h10.6L576.1,365.9z"/>
	<g>
		<path class="st1" d="M415.1,139.6c0,26.6-10.8,50.6-28.2,68c-17.4,17.4-41.5,28.2-68,28.2c-26.6,0-50.6-10.8-68-28.2
			c-17.4-17.4-28.2-41.5-28.2-68c0-26.6,10.8-50.6,28.2-68c17.4-17.4,41.5-28.2,68-28.2c26.6,0,50.6,10.8,68,28.2
			C404.3,89,415.1,113.1,415.1,139.6z M250.2,70.9c-17.6,17.6-28.5,41.9-28.5,68.7c0,26.8,10.9,51.2,28.5,68.7
			c17.6,17.6,41.9,28.5,68.7,28.5c26.8,0,51.1-10.9,68.7-28.5c17.6-17.6,28.5-41.9,28.5-68.7c0-26.8-10.9-51.1-28.5-68.7
			c-17.6-17.6-41.9-28.5-68.7-28.5C292.1,42.4,267.7,53.3,250.2,70.9z"/>
		<g>
			<polygon class="st1" points="334.7,130.5 405,184.8 406,189.9 401,191.7 318.9,157.9 236.8,191.7 231.8,189.9 232.8,184.8 
				303.1,130.5 314.9,42.5 318.9,39.1 322.9,42.5 			"/>
			<polygon class="st1" points="321.9,42.5 319,39.5 318.8,39.5 315.9,42.5 304.2,129.3 304.2,129.3 317.8,137.9 304,131 
				233.3,185.7 232.1,189.6 232.2,189.8 236.2,190.8 317.3,157.5 317.9,141.4 318.9,156.8 401.6,190.8 405.6,189.8 405.7,189.6 
				404.5,185.7 333.8,131 320,137.9 333.5,129.1 			"/>
			<g>
				<defs>
					<polygon id="SVGID_1_" points="318.8,39.5 315.9,42.5 304.2,129.3 317.8,137.9 318.8,39.5 					"/>
				</defs>
				<use xlink:href="#SVGID_1_"  style="overflow:visible;fill-rule:evenodd;clip-rule:evenodd;fill:#FFFFFF;"/>
				<clipPath id="SVGID_2_">
					<use xlink:href="#SVGID_1_"  style="overflow:visible;"/>
				</clipPath>
				<path class="st2" d="M310.7,135.2c-3.2-1.9-3-5.1-2.5-12.2c0.5-7.1,9.2-89.9,9.2-89.9l-9.2,9.2l-18.7,86.5L310.7,135.2z"/>
			</g>
			<g>
				<defs>
					<polygon id="SVGID_3_" points="232.1,189.6 316.9,139.6 302.6,132.1 233.3,185.7 232.1,189.6 					"/>
				</defs>
				<use xlink:href="#SVGID_3_"  style="overflow:visible;fill-rule:evenodd;clip-rule:evenodd;fill:#FFFFFF;"/>
				<clipPath id="SVGID_4_">
					<use xlink:href="#SVGID_3_"  style="overflow:visible;"/>
				</clipPath>
				<path class="st3" d="M310.9,134.8c-3.3-1.8-5.9,0-11.8,4c-5.9,4-73.3,52.9-73.3,52.9l3.4-12.5l65.6-59.5L310.9,134.8z"/>
			</g>
			<g>
				<defs>
					<polygon id="SVGID_5_" points="405.7,189.6 404.5,185.7 335.2,132.1 320.9,139.6 405.7,189.6 					"/>
				</defs>
				<use xlink:href="#SVGID_5_"  style="overflow:visible;fill-rule:evenodd;clip-rule:evenodd;fill:#FFFFFF;"/>
				<clipPath id="SVGID_6_">
					<use xlink:href="#SVGID_5_"  style="overflow:visible;"/>
				</clipPath>
				<path class="st4" d="M326.8,134.8c3.3-1.8,5.9,0,11.8,4c5.9,4,73.3,52.9,73.3,52.9l-3.4-12.5l-65.6-59.5L326.8,134.8z"/>
			</g>
			<path class="st1" d="M334.7,130.5l70.3,54.3l0.9,5.2l-5,1.8l-82.1-33.7l-82.1,33.7l-4.9-1.8l0.9-5.2l70.3-54.3l11.8-88l4-3.4
				l4,3.4L334.7,130.5z M321.9,42.5l-2.9-3h-0.3l-2.9,3l-11.7,86.9h0l13.6,8.6L304,131l-70.7,54.6l-1.2,4l0.1,0.2l4,1l81.1-33.3
				l0.6-16.1l1,15.4l82.7,34l4-1l0.1-0.2l-1.2-3.9L333.8,131l-13.8,6.9l13.5-8.8L321.9,42.5z"/>
		</g>
		<g>
		</g>
		<path class="st1" d="M427.7,139.6c0,30.1-12.2,57.3-31.9,77c-19.7,19.7-46.9,31.9-77,31.9c-30.1,0-57.3-12.2-77-31.9
			c-19.7-19.7-31.9-46.9-31.9-77s12.2-57.3,31.9-77c19.7-19.7,46.9-31.9,77-31.9c30.1,0,57.3,12.2,77,31.9
			C415.5,82.4,427.7,109.6,427.7,139.6z M241.2,62c-19.9,19.9-32.2,47.3-32.2,77.7s12.3,57.8,32.2,77.7
			c19.9,19.9,47.3,32.2,77.7,32.2s57.8-12.3,77.7-32.2c19.9-19.9,32.2-47.3,32.2-77.7S416.4,81.9,396.6,62
			c-19.9-19.9-47.3-32.2-77.7-32.2S261.1,42.1,241.2,62z"/>
	</g>
</g>
</svg>
