<svg id="Layer_1" data-name="Layer 1" xmlns="http://www.w3.org/2000/svg" width="121" height="35" viewBox="0 0 152.14 43.19"><defs><style>.cls-1{fill:#fff;}</style></defs><title>partner3</title><path class="cls-1" d="M326.22,276.43v43.19h43.67V276.43H326.22Zm13.65,7.11a2.5,2.5,0,0,1,2.5-2.42,2.48,2.48,0,0,1,2.48,2.42h0V300.4h0a1.59,1.59,0,0,0,1.71,1.53,1.44,1.44,0,0,0,1.59-1.53h0V283.54h0a2.62,2.62,0,0,1,2.54-2.42,2.56,2.56,0,0,1,2.5,2.42h0V300.4h0a6.66,6.66,0,0,1-6.63,6.53c-6.57-.19-6.71-6.53-6.71-6.53h0l0-16.86h0Zm-3.35,29.89s-5,0-5-4.94v-25a2.4,2.4,0,0,1,2.52-2.42,2.38,2.38,0,0,1,2.5,2.42h0v23.38h0s-0.19,1.57,1.74,1.57h22.45l-5.41-13.22h0s-0.87-2.29,0-3.86,4.54-7.87,4.54-7.87,1-2.42,2.91-2.42a2.43,2.43,0,0,1,2.21,3.47c-0.78,1.43-4.34,7.52-4.34,7.52a2.88,2.88,0,0,0,0,3c1.49,3.55,7.52,18.34,7.52,18.34h-31.6Z" transform="translate(-326.22 -276.43)"/><path class="cls-1" d="M376.06,300V280.2h5.4v15.19h6.72V300H376.06Z" transform="translate(-326.22 -276.43)"/><path class="cls-1" d="M390.7,280.2h5.39v9.63a29.1,29.1,0,0,0,.11,3.08,6.18,6.18,0,0,0,.39,1.57,2.13,2.13,0,0,0,1.06,1.1,4.05,4.05,0,0,0,1.88.41,5.19,5.19,0,0,0,1-.09,3.09,3.09,0,0,0,.85-0.3,2.25,2.25,0,0,0,1.1-1.16,6.32,6.32,0,0,0,.36-1.58,28.2,28.2,0,0,0,.12-3V280.2h5.38v10.47q0,1.62-.09,2.82a12.28,12.28,0,0,1-.3,2,6.24,6.24,0,0,1-1.33,2.64,6.12,6.12,0,0,1-2.79,1.8,15.68,15.68,0,0,1-8.63,0,6.32,6.32,0,0,1-2.79-1.81,6.71,6.71,0,0,1-1.31-2.64,20.53,20.53,0,0,1-.41-4.82V280.2Z" transform="translate(-326.22 -276.43)"/><path class="cls-1" d="M412.44,300V280.2h5.35v9l6.27-9h6.3L423,289.87,431,300h-6.74l-6.46-8.9V300h-5.35Z" transform="translate(-326.22 -276.43)"/><path class="cls-1" d="M452.9,290.14a10.3,10.3,0,0,1-.78,4,9.93,9.93,0,0,1-2.28,3.33,10.83,10.83,0,0,1-11.6,2.27,10.48,10.48,0,0,1-3.44-2.25,10.21,10.21,0,0,1-3.09-7.35,10.47,10.47,0,0,1,6.53-9.59,10.9,10.9,0,0,1,8.16,0,10.36,10.36,0,0,1,3.43,2.25A10.17,10.17,0,0,1,452.9,290.14ZM442.31,296A4.76,4.76,0,0,0,446,294.3a6,6,0,0,0,1.48-4.16,6.73,6.73,0,0,0-.37-2.27A5.67,5.67,0,0,0,446,286a5,5,0,0,0-7.4,0,6,6,0,0,0-1.48,4.16,6.07,6.07,0,0,0,1.45,4.19A4.77,4.77,0,0,0,442.31,296Z" transform="translate(-326.22 -276.43)"/><path class="cls-1" d="M456.42,300V280.2h5.46V300h-5.46Z" transform="translate(-326.22 -276.43)"/><path class="cls-1" d="M466.24,300V280.2h5.4v15.19h6.71V300H466.24Z" transform="translate(-326.22 -276.43)"/><path class="cls-1" d="M387.39,310.62a5.43,5.43,0,0,1-.42,2.13,5.31,5.31,0,0,1-1.23,1.77,5.85,5.85,0,0,1-1.84,1.21,5.55,5.55,0,0,1-2.16.43,5.71,5.71,0,0,1-2.17-.42,5.63,5.63,0,0,1-1.83-1.2,5.43,5.43,0,0,1-1.65-3.93,5.51,5.51,0,0,1,.42-2.14,5.32,5.32,0,0,1,1.22-1.79,5.59,5.59,0,0,1,1.83-1.2,5.74,5.74,0,0,1,2.18-.42,5.67,5.67,0,0,1,2.15.41,5.68,5.68,0,0,1,3.07,3A5.4,5.4,0,0,1,387.39,310.62Zm-1.79,0a4.06,4.06,0,0,0-.29-1.53,3.88,3.88,0,0,0-.83-1.27,3.84,3.84,0,0,0-1.25-.86,3.71,3.71,0,0,0-1.49-.3,3.75,3.75,0,0,0-2.74,1.16,4.15,4.15,0,0,0-.84,1.28,4.3,4.3,0,0,0-.22.74,4.14,4.14,0,0,0-.07.79,4,4,0,0,0,.29,1.52,3.84,3.84,0,0,0,.35.68,3.63,3.63,0,0,0,.49.6,3.7,3.7,0,0,0,1.24.86,3.8,3.8,0,0,0,1.49.3,3.71,3.71,0,0,0,2.71-1.15,4.11,4.11,0,0,0,.84-1.28A3.92,3.92,0,0,0,385.6,310.62Z" transform="translate(-326.22 -276.43)"/><path class="cls-1" d="M389.39,315.88V305.31h1.72v10.57h-1.72Z" transform="translate(-326.22 -276.43)"/><path class="cls-1" d="M393.58,315.88V305.31h1.72v9h3.84v1.54h-5.56Z" transform="translate(-326.22 -276.43)"/><path class="cls-1" d="M413.47,307.88a5.27,5.27,0,0,0-1.54-.93,5,5,0,0,0-.83-0.23,4.74,4.74,0,0,0-.88-0.08,3.77,3.77,0,0,0-2.82,1.11,4.34,4.34,0,0,0,0,5.72,3.53,3.53,0,0,0,2.66,1.11,4.91,4.91,0,0,0,.91-0.08,4.85,4.85,0,0,0,.88-0.25,5.57,5.57,0,0,0,1.63-1v1.95a5.12,5.12,0,0,1-1.51.75,6.11,6.11,0,0,1-.85.18,6.49,6.49,0,0,1-.92.07,6.19,6.19,0,0,1-2.24-.39,5.29,5.29,0,0,1-3-3,6,6,0,0,1,0-4.37,5.32,5.32,0,0,1,3-3,6,6,0,0,1,2.2-.4,6.21,6.21,0,0,1,.91.07,5.21,5.21,0,0,1,.87.21,5.77,5.77,0,0,1,1.64.82Z" transform="translate(-326.22 -276.43)"/><path class="cls-1" d="M426.44,310.62a5.48,5.48,0,0,1-.42,2.13,5.4,5.4,0,0,1-1.23,1.77,5.87,5.87,0,0,1-1.84,1.21,5.57,5.57,0,0,1-2.16.43,5.73,5.73,0,0,1-2.18-.42,5.64,5.64,0,0,1-1.83-1.2,5.41,5.41,0,0,1-1.22-1.79,5.63,5.63,0,0,1,0-4.28,5.34,5.34,0,0,1,1.22-1.79,5.62,5.62,0,0,1,1.83-1.2,5.74,5.74,0,0,1,2.18-.42,5.67,5.67,0,0,1,2.15.41,5.59,5.59,0,0,1,1.83,1.2,5.5,5.5,0,0,1,1.24,1.8A5.42,5.42,0,0,1,426.44,310.62Zm-1.79,0a4.08,4.08,0,0,0-.29-1.53,3.91,3.91,0,0,0-.83-1.27,3.86,3.86,0,0,0-1.25-.86,3.71,3.71,0,0,0-1.49-.3,3.74,3.74,0,0,0-2.74,1.16,4.13,4.13,0,0,0-.84,1.28,4.39,4.39,0,0,0-.21.74,4.24,4.24,0,0,0,.21,2.31,3.84,3.84,0,0,0,.35.68,4.07,4.07,0,0,0,1.73,1.46,3.79,3.79,0,0,0,1.49.3,3.71,3.71,0,0,0,2.71-1.15,4.15,4.15,0,0,0,.84-1.28A3.92,3.92,0,0,0,424.65,310.62Z" transform="translate(-326.22 -276.43)"/><path class="cls-1" d="M437,310.66l-0.09-.68-0.1-.77a5.65,5.65,0,0,1-.19.75,4.51,4.51,0,0,1-.29.71l-2.77,5.64-2.77-5.75c-0.12-.25-0.22-0.47-0.3-0.69l-0.22-.66c0,0.17,0,.3,0,0.37s0,0.18,0,.33a5.28,5.28,0,0,1-.14.76L429,315.88h-1.58l2.5-11,3.12,6.67,0.21,0.53,0.37,0.91a11.22,11.22,0,0,1,.48-1.16l0.13-.29,3-6.67,2.56,11H438.2Z" transform="translate(-326.22 -276.43)"/><path class="cls-1" d="M442.78,311.13v4.74h-1.61V305.31h2.6a8.43,8.43,0,0,1,1.69.12,2.61,2.61,0,0,1,1,.42,2.46,2.46,0,0,1,.78,1,3.34,3.34,0,0,1,.28,1.38,3.4,3.4,0,0,1-.28,1.38,2.45,2.45,0,0,1-.78,1,2.65,2.65,0,0,1-1,.41,8.31,8.31,0,0,1-1.7.13h-1Zm0.11-1.41h0.44a3.93,3.93,0,0,0,1.91-.31,1.21,1.21,0,0,0,.47-1.1,1.34,1.34,0,0,0-.5-1.19,3.61,3.61,0,0,0-1.88-.34h-0.44v2.95Z" transform="translate(-326.22 -276.43)"/><path class="cls-1" d="M456,315.88l-1.2-2.72h-4.19l-1.23,2.72H447.6l5.12-11,5.11,11H456Zm-4.75-4.15h2.94l-1.08-2.41-0.2-.53-0.2-.67-0.09.35c0,0.1-.06.2-0.1,0.3a4.82,4.82,0,0,1-.2.55Z" transform="translate(-326.22 -276.43)"/><path class="cls-1" d="M458.83,315.88v-11l6.71,6.47,0.56,0.58c0.18,0.2.38,0.43,0.59,0.7v-7.33h1.59v11l-6.85-6.58-0.27-.27-0.27-.3c-0.17-.2-0.34-0.41-0.48-0.62v7.35h-1.58Z" transform="translate(-326.22 -276.43)"/><path class="cls-1" d="M473,315.88V311l-3.56-5.73h1.8l2.22,3.59,0.19,0.36,0.25,0.48,0.08-.19a3.12,3.12,0,0,1,.13-0.29,3.56,3.56,0,0,1,.24-0.41l2.27-3.54h1.72L474.68,311v4.85H473Z" transform="translate(-326.22 -276.43)"/></svg>