<svg id="Слой_1" data-name="Слой 1" xmlns="http://www.w3.org/2000/svg" width="113" height="26" viewBox="0 0 173.8 43.62"><defs><style>.cls-1{fill:none;}.cls-1,.cls-2{fill-rule:evenodd;}.cls-2{fill:#fff;}</style></defs><title>partner7</title><path class="cls-1" d="M1448.65,1487.31a15.8,15.8,0,0,1,9.78.68h0l0.15-1,11,0.07h0a11.64,11.64,0,0,1,5,0h0l0.37,0.1,1.1-6.91h14.23l-1.07,6.66h0a13.48,13.48,0,0,1,2.44-.12h0l1-6.54h14.18l-0.88,5.47h0a13.36,13.36,0,0,1,.93-1.37c2.51-3,5.73-4.12,9.54-4.39a15.18,15.18,0,0,1,6.76,1h0l0.1-.71h14.23l-1.17,7.22h0a16.71,16.71,0,0,1,2.39-.51c3.73-.46,7.66-0.24,10.59,2.39,2.76-2.32,6.73-2.76,10.2-2.51a10.36,10.36,0,0,1,6.32,2.46,12.59,12.59,0,0,1,6.86-2.46c3.78-.24,7.61.17,10.25,3.15a8.12,8.12,0,0,1,1.76,5,13.84,13.84,0,0,1-.15,2h0l-1.42,8.88h-0.78a9.65,9.65,0,0,1,.24,4.17h0l-0.78,4.83h0a10.35,10.35,0,0,1-4.56,6.83,16.27,16.27,0,0,1-10.44,1.71,9.75,9.75,0,0,1-5.27-2.25c-3.07,2.27-7,2.68-10.66,2.32a12.77,12.77,0,0,1-3.42-.85h0l-0.1.59h-9.78a15.72,15.72,0,0,1-5.12.29,11.61,11.61,0,0,1-1.83-.39h0v0.1h-14.22l0.07-.46h0a16.35,16.35,0,0,1-9.13.24c-3.12-.9-5.59-2.81-6.37-6.1h0l-1,6.32h-8.66l-0.59-.15h0a10.93,10.93,0,0,1-7.32-.2h0l0,0.34h-30.67l0-.17h0a15.23,15.23,0,0,1-2.39.44c-3.9.37-8.2,0-11-3.1h0l-0.78,2.83H1411l2-42.92h37.67l-2,7h0Z" transform="translate(-1410.98 -1480.02)"/><path class="cls-2" d="M1468.63,1502.71h6.49l1.27-8h0a3,3,0,0,0-.9-2.93,5,5,0,0,0-.41-0.34,4.69,4.69,0,0,0-2.73-.78,6.69,6.69,0,0,0-4.17,1.15h0l0.15-1h-6.47l-3.44,21.4-1.15,7.15h6.47l3.68-23h0a1.3,1.3,0,0,1,1.32-1.27c0.76,0,1,.44.9,1.32h0l-1,6.2h0Z" transform="translate(-1410.98 -1480.02)"/><polygon class="cls-2" points="34.6 4.14 32.5 4.14 28.72 4.14 23.72 20.42 24.38 4.14 16.3 4.14 11.25 20.42 12.03 4.14 5.61 4.14 4 39.4 11.3 39.4 16.84 19.95 16.27 39.4 24.77 39.4 32.5 11.63 34.6 4.14 34.6 4.14 34.6 4.14"/><path class="cls-2" d="M1459.48,1496.46a4.25,4.25,0,0,0-1.07-4,4,4,0,0,0-.49-0.42,8.71,8.71,0,0,0-5-1.39,15.34,15.34,0,0,0-2.44.17q-5.42.88-6.22,5.86h0l-0.76,4.73-2,12.35h0c-0.39,2.42.27,4.12,2,5.08a9.78,9.78,0,0,0,4.76,1,15.67,15.67,0,0,0,2.22-.15c3.61-.51,5.69-2.39,6.2-5.61h0l1.76-11,1.07-6.64h0Zm-6.49,0-2.54,15.76-0.27,1.71h0a1.4,1.4,0,0,1-1.34,1.46c-0.76,0-1-.49-0.9-1.46h0l2.51-15.76,0.29-1.71h0a1.35,1.35,0,0,1,1.34-1.42c0.76,0,1,.46.9,1.42h0Z" transform="translate(-1410.98 -1480.02)"/><polygon class="cls-2" points="74.86 4.14 73.08 4.14 68.39 4.14 64.1 30.86 62.73 39.4 64.1 39.4 69.22 39.4 73.08 15.27 74.86 4.14 74.86 4.14 74.86 4.14"/><path class="cls-2" d="M1547.84,1496.71a5.36,5.36,0,0,0-.63-4c-1-1.34-2.83-2-5.64-2a14.14,14.14,0,0,0-3.54.39,6.23,6.23,0,0,0-5.1,5.39h0l-0.93,5.71h6.25a16.69,16.69,0,0,0,.2-1.83c0.1-.81.17-1.42,0.24-1.83,0.37-2.27,1-3.42,1.81-3.42s1,0.46.9,1.42h0l-0.68,4.22h0q-0.11.73-2.56,2l-0.12,0a25.54,25.54,0,0,0-5.64,3.51,5.83,5.83,0,0,0-1,1.29,5.62,5.62,0,0,0-.76,2h0l-0.93,5.73h0q-0.47,3,1.68,4a7,7,0,0,0,2.9.51,6.61,6.61,0,0,0,3.78-.85,2.5,2.5,0,0,0,.61-0.63h0l-0.17,1.1h5.71l3-18.76,0.63-4h0Zm-9.27,17.37a1.58,1.58,0,0,1-.54,1.1,1.19,1.19,0,0,1-.73.22q-1.17,0-1-1.32h0l0.83-5.17h0a2.24,2.24,0,0,1,.85-1.42,5,5,0,0,1,1.73-.76h0l-1.2,7.34h0Z" transform="translate(-1410.98 -1480.02)"/><path class="cls-2" d="M1560.91,1504.88c-3.29-1.9-5.05-3.27-5.29-4.05a8.37,8.37,0,0,1,0-3.49c0.22-1.49.76-2.24,1.56-2.24s1,1.2.63,3.56h0l-0.71,3.44h6.32l0.22-1.39,0.68-4.25h0a4.72,4.72,0,0,0-.68-3.83c-1-1.29-2.88-2-5.73-2-5,0-7.86,2-8.49,6h0l-0.61,3.83h0a4.44,4.44,0,0,0,.49,3.44c0.56,0.76,2.39,2.1,5.47,4,0.78,0.68,1,2.24.59,4.66q-0.44,2.78-1.54,2.78c-0.73,0-1-.49-0.85-1.46h0l1-6.05h-6.47l-0.32,2.07-0.66,4.05h0a4.84,4.84,0,0,0,.66,3.73c1,1.37,3,2,5.93,2q7.65,0,8.61-6h0l0.68-4.27h0a4.76,4.76,0,0,0-1.51-4.64h0Z" transform="translate(-1410.98 -1480.02)"/><path class="cls-2" d="M1494.79,1491.73a5,5,0,0,0-3.29-1,3.91,3.91,0,0,0-.54,0,5.92,5.92,0,0,0-3.51,1.07,4.22,4.22,0,0,0-1.83,2.88h0l-1.56,9.74-1.73,10.78h0a3.45,3.45,0,0,0,1.2,3.42,4.13,4.13,0,0,0,.54.37,6.49,6.49,0,0,0,3.49.88,6.74,6.74,0,0,0,4-1.32,0,0,0,0,1,0,0h0l0.39,1h4.88l5.66-35.26H1496l-1.2,7.56h0Zm-0.76,4.64-2.54,15.88-0.29,1.83h0a1.31,1.31,0,0,1-1.32,1.32q-1.13,0-1-1.32h0l2.56-15.86,0.29-1.81h0a1.3,1.3,0,0,1,1.34-1.32c0.73,0,1,.41.9,1.27h0Z" transform="translate(-1410.98 -1480.02)"/><path class="cls-2" d="M1574.43,1490.68c-5,0-7.86,2-8.49,6h0l-0.61,3.83h0a4.44,4.44,0,0,0,.49,3.44c0.56,0.76,2.39,2.1,5.47,4,0.78,0.68,1,2.24.59,4.66q-0.44,2.78-1.54,2.78c-0.73,0-1-.49-0.85-1.46h0l1-6.05H1564l-0.29,1.85-0.68,4.27h0a4.83,4.83,0,0,0,.68,3.78c1,1.32,3,2,5.9,2q7.65,0,8.61-6h0l0.68-4.27h0a4.76,4.76,0,0,0-1.51-4.64c-3.29-1.9-5.05-3.27-5.29-4.05a8.38,8.38,0,0,1,0-3.49c0.22-1.49.76-2.24,1.56-2.24s1,1.2.63,3.56h0l-0.71,3.44h6.32l0.9-5.64h0c0.63-3.86-1.51-5.78-6.42-5.78h0Z" transform="translate(-1410.98 -1480.02)"/><polygon class="cls-2" points="122.12 4.14 120.36 4.14 115.65 4.14 111.63 29.18 109.99 39.4 111.63 39.4 116.46 39.4 120.36 15.1 122.12 4.14 122.12 4.14 122.12 4.14"/><path class="cls-2" d="M1515.16,1505.27l-1.39,8.69h0a1,1,0,0,1-1.1.88c-0.68,0-1-.29-0.9-0.88h0l3.93-24.45h0a1,1,0,0,1,1.17-.88,0.7,0.7,0,0,1,.83.88h0l-1.12,7h6.51l1-6.39h0c0.39-2.34-.12-4-1.51-5.05a8.13,8.13,0,0,0-4.88-1.2c-5.51,0-8.64,2.27-9.37,6.86h0l-3.64,22.69h0c-0.68,4.25,1.73,6.34,7.25,6.34a10,10,0,0,0,5.37-1.51,5.62,5.62,0,0,0,2.93-4h0l1.44-8.93h-6.54Z" transform="translate(-1410.98 -1480.02)"/></svg>