<svg id="svg2628" xmlns="http://www.w3.org/2000/svg" width="125" height="27" viewBox="0 0 1009.77 219.81"><defs><style>.cls-1{fill:#fff;}</style></defs><title>partner8</title><path id="path2524" class="cls-1" d="M893.29,181.38l-18.11-36.23L857,181.38h36.25ZM487.13,94.66l-36.23,18.11,36.23,18.12V94.66ZM159.76,135.53l18.12,36.23L196,135.53H159.76ZM988.55,58.34a11.74,11.74,0,0,0-11.94,11.61c0,7.51,6.06,11.77,11.94,11.77,6.57,0,12.2-4.42,12.2-11.51,0-7.26-5.89-11.87-12.12-11.87h-0.08Zm-49.93,37V81.22h30.12c-5.38-5-5.38-11.79-5.38-13.76,0-9.89,7.09-23.29,25-23.29,17.06,0,25.6,11.86,25.6,23.89,0,6.67-3.24,11.79-6.66,13.75h5V95.38H938.63Zm50.27,47.52c4.34,0,11.86-3.24,11.86-11.78a11,11,0,0,0-5.29-9.91,13.06,13.06,0,0,0-6.07-2,12.25,12.25,0,0,0-6.22,1.19,11.24,11.24,0,0,0-6.57,10.77c0,8.12,6.82,11.69,12.19,11.69h0.1Zm23.46-37.81v14.17h-5.12c4.63,2.56,6.76,8.45,6.76,14,0,15-11.78,23.82-25.36,23.82-15.53,0-25.26-11.18-25.26-23.82,0-7.76,3.75-12.11,6.66-14h-5V105.09h47.36Zm-73.73,76.29V167.21h73.73v14.17H938.63" transform="translate(-4.22 -3.7)"/><path id="path2526" class="cls-1" d="M632.18,200.54l10.58,23c50.19-38.39,59.43-81.28,26.76-127.23-25.88-36.41,2.6-68.8,11.18-77.21L661.48,3.7C648.92,17.48,616,60.55,644.78,103.87,672.7,145.82,669.8,168.57,632.18,200.54Zm-390,0,10.58,23c50.19-38.39,59.43-81.28,26.75-127.23-25.87-36.41,2.61-68.8,11.18-77.21L271.51,3.7C258.95,17.48,226,60.55,254.83,103.87,282.73,145.82,279.84,168.57,242.21,200.54ZM907,44.18L875.18,99.24l-31.8-55.06H817.5l57.67,99.9,57.67-99.9H907ZM388.57,52c-9.06-5.32-20.16-7.78-34.93-7.78H321.24v137.2h25.89V70.06h6.5c17.92,0,30.21,4.42,30.21,20.53,0,15-14.81,21.63-32,22.16l-3.73,0h0l17.2,24.57a64.55,64.55,0,0,0,22.52-8.17c0.47-.3.94-0.62,1.4-0.94a44.42,44.42,0,0,0,20.46-37.65C409.74,73.69,402.21,60,388.57,52Zm205,76.28A44.44,44.44,0,0,0,614,90.59C614,73.69,606.45,60,592.79,52c-9-5.32-20.15-7.78-34.92-7.78H525.48v137.2h25.89V70.06h6.5c17.92,0,30.22,4.42,30.22,20.53,0,15-14.81,21.63-32,22.16l-3.73,0h0l48,68.61h30.29Zm174.89-15.46,48-68.59h-30.3l-48,68.59,48,68.61h30.3ZM737.1,44.18H711.21v137.2H737.1V44.18ZM61.44,112.77l48-68.59H79.19l-48,68.59,48,68.61h30.29ZM30.12,44.18H4.22v137.2H30.12V44.18Zm475.4,25.88V44.18H424v137.2h81.53V155.5H449.86V70.06h55.66ZM244.32,181.38H218.42L177.88,94.44l-40.53,86.94h-25.9L177.88,38.92l66.43,142.46" transform="translate(-4.22 -3.7)"/></svg>