<svg id="Page_1" data-name="Page 1" xmlns="http://www.w3.org/2000/svg" width="119" height="17" viewBox="0 0 379.31 52.19"><defs><style>.cls-1{fill:#fff;fill-rule:evenodd;}</style></defs><title>partner2</title><g id="Camada_1" data-name="Camada 1"><polygon class="cls-1" points="0 2.24 0 9.16 11.36 9.16 33.59 50.86 60.95 50.86 83.18 9.1 94.54 9.02 94.56 2.24 60.58 2.24 60.58 9.05 69.63 9.05 53.93 38.69 36.95 9.15 49.33 9.1 49.31 2.24 0 2.24 0 2.24"/><polygon class="cls-1" points="219.24 2.24 219.24 9.16 230.6 9.16 252.83 50.86 280.19 50.86 302.42 9.1 313.78 9.02 313.8 2.24 279.82 2.24 279.82 9.05 288.87 9.05 273.17 38.69 256.19 9.15 268.58 9.1 268.55 2.24 219.24 2.24 219.24 2.24"/><path class="cls-1" d="M394.64,273.78v6.93H406l0,34H394v7.59l12,0.07h56.71V299.77h-7.39c-0.4,12-10.8,15-15.18,15l-11.79,0V280.69l11.19-.06,0-6.86H394.64Z" transform="translate(-231.29 -271.54)"/><path class="cls-1" d="M355.9,316.17c-6.81,0-12.32-8.15-12.32-18.21s5.51-18.22,12.32-18.22,12.32,8.16,12.32,18.22-5.52,18.21-12.32,18.21h0Zm0.5-43.79c-19.31,0-35,11.5-35,25.67s15.65,25.67,35,25.67,35-11.5,35-25.67-15.65-25.67-35-25.67h0Z" transform="translate(-231.29 -271.54)"/><path class="cls-1" d="M575.14,316c-6.8,0-12.32-8.29-12.32-18.52S568.34,279,575.14,279s12.32,8.29,12.32,18.51S581.95,316,575.14,316h0Zm0.5-44.5c-19.31,0-35,11.68-35,26.09s15.65,26.09,35,26.09,35-11.68,35-26.09-15.65-26.09-35-26.09h0Z" transform="translate(-231.29 -271.54)"/></g></svg>