<svg id="Layer_1" data-name="Layer 1" xmlns="http://www.w3.org/2000/svg" width="134" height="38" viewBox="0 0 131.18 36.07"><defs><style>.cls-1{fill:#fff;fill-rule:evenodd;}</style></defs><title>partner15</title><path class="cls-1" d="M20.05,60.35c2.31,5.88-1.47,9.66-5.23,13.43-3.52,3.87-6.58,7.88-.39,15.12-2.31-5.87,1.47-9.66,5.22-13.44,3.5-3.87,6.59-7.88.39-15.12" transform="translate(-5.27 -52.83)"/><path class="cls-1" d="M14.44,52.83c2.33,5.87-1.45,9.66-5.23,13.43-3.5,3.87-6.59,7.88-.37,15.12C6.51,75.49,10.29,71.73,14,68c3.52-3.89,6.61-7.91.39-15.12" transform="translate(-5.27 -52.83)"/><polyline class="cls-1" points="104.41 23.31 104.41 35.31 109.68 35.31 109.68 30.93 115.46 30.93 115.46 28.3 109.68 28.3 109.68 25.92 121.14 25.92 121.14 35.31 126.41 35.31 126.41 25.92 131.18 25.92 131.18 23.31 104.41 23.31"/><polyline class="cls-1" points="93.11 32.72 93.11 30.63 99.98 30.63 99.98 27.99 93.11 27.99 93.11 25.92 101.92 25.92 101.92 23.31 87.85 23.31 87.85 35.31 102.03 35.31 102.03 32.72 93.11 32.72"/><polyline class="cls-1" points="37.58 23.31 23 23.31 23 25.92 27.67 25.92 27.67 35.31 32.91 35.31 32.91 25.92 37.58 25.92 37.58 23.31"/><path class="cls-1" d="M53.26,76.14h-4v2.92l0.07-.11,2.33,4.64h-2.4v2.51h3.69L54,88.15h5.83l-6.56-12m-4,0H47.6L41,88.15h3.43l1.08-2.05h3.67V83.59H46.85l2.38-4.54V76.14Z" transform="translate(-5.27 -52.83)"/><polyline class="cls-1" points="81.37 23.31 81.37 29.31 72.95 23.31 68.87 23.31 68.87 35.31 72.47 35.31 72.47 28.7 81.13 35.31 84.97 35.31 84.97 23.31 81.37 23.31"/><polyline class="cls-1" points="67.07 23.31 52.82 23.31 52.82 25.92 57.49 25.92 57.49 35.31 62.73 35.31 62.73 25.92 67.07 25.92 67.07 23.31"/></svg>