<svg id="Слой_1" data-name="Слой 1" xmlns="http://www.w3.org/2000/svg" width="95" height="48" viewBox="0 0 187.48 95.26"><defs><style>.cls-1{fill:#fff;fill-rule:evenodd;}</style></defs><title>partner9</title><path class="cls-1" d="M1424.17,1532.22c-10.58-16.2-5.25-39.25,11.43-56.77-20.28,12-32,27.18-29.47,41.42,2,11.24,12.52,20,28.25,25.28a33.29,33.29,0,0,1-10.2-9.93h0Z" transform="translate(-1405.78 -1452.7)"/><path class="cls-1" d="M1592.92,1483.81c-4.09-23.08-44.06-35.59-91.45-29.62,8.42,2.49,15.53,7.29,20.18,14.4,13.07,20,1.85,50.51-25.07,68.09a73.41,73.41,0,0,1-28.53,11.17,185.62,185.62,0,0,0,39.38-2.84c51.58-9.13,89.86-36.53,85.49-61.2h0Z" transform="translate(-1405.78 -1452.7)"/><path class="cls-1" d="M1444.92,1497.4H1429l-4.13,14.37h6.34l1.45-5.06h1.5c2.35,0,5.34-.46,4.59,2.45h0l-0.4,2.61h5.54l1-4.75h0a1.78,1.78,0,0,0-1.4-2.14h0v-0.31h0c3.29-1.12,3-2.65,3.19-3.87,0.36-2.18-.59-3-1.85-3.3h0Zm-4.84,4.32c-0.48,1.66-.4,1.65-4.74,1.65h-1.67l0.76-3h1.86c2.42,0,4.18,0,3.79,1.32h0Z" transform="translate(-1405.78 -1452.7)"/><polygon class="cls-1" points="57.7 56.55 47.35 56.55 48.26 53.21 57.71 53.21 58.47 50.41 49.03 50.41 49.87 47.36 59.87 47.36 60.59 44.7 44.52 44.7 40.58 59.07 57.02 59.07 57.7 56.55 57.7 56.55 57.7 56.55"/><polygon class="cls-1" points="75.9 44.7 74.12 52.59 69.84 44.7 62.53 44.7 58.91 59.07 65.13 59.07 66.93 50.27 71.57 59.07 78.42 59.07 82.03 44.7 75.9 44.7 75.9 44.7 75.9 44.7"/><polygon class="cls-1" points="91.38 46.84 97.67 46.82 100.21 59.07 104.11 59.07 113.98 44.84 110.39 44.84 102.91 55.85 100.54 44.7 83.15 44.7 82.7 46.69 88.09 46.69 85.46 59.07 88.72 59.07 91.38 46.84 91.38 46.84 91.38 46.84"/></svg>