<svg id="Слой_1" data-name="Слой 1" xmlns="http://www.w3.org/2000/svg" width="64" height="83" viewBox="0 0 577.83 752.05"><defs><style>.cls-1{fill:#fff;fill-rule:evenodd;}</style></defs><title>partner4</title><path class="cls-1" d="M1710.34,1406.83c-100.18,0-171.32,12.34-288.92,39.2l31.94,421c5.81,120.5,119.05,220.68,257,291.82,137.92-71.14,251.17-171.32,257-291.82l31.94-421C1881.66,1419.18,1810.52,1406.83,1710.34,1406.83Zm-270.15,134.28c128.58-33.68,206.81-36.83,264.35-37.65v142.93H1601.45l0.06,12.18c-3.42-.69-7.38-1.4-9.24-1.21,1.92-13.14,11.61-19.82,12.6-20.8s2-3.34-.33-3.34c-18.29,1.63-27,21.12-28.27,26-1.63.33-11.72,2.69-15,3.67,2-20.58,15.57-30.16,17.53-31.47s2.61-3.27,0-3.27c-22.36.44-34.63,34.3-35.93,39.85a174.8,174.8,0,0,0-17.49,8.42c-1.6-26.06,20-43.81,21.34-45.12s2.29-3.59-.65-2.94c-27.77,3.92-36,49-36.53,54.43-0.65,5.06-5.23,3.1-6.33,2.55a9,9,0,0,0-13.62,7.74,7.34,7.34,0,0,0,.34,2.21,9.76,9.76,0,0,0-5.89,8.57,9,9,0,0,0,9,9,8.43,8.43,0,0,0,5.33-1.75,9,9,0,0,0,6.76,3.05c5,0,10.78-3.78,11.11-13.91,33-21.56,56.91-27.48,71.21-27.44,9.15,0,12.13,1.87,14,3.61l0,43c-10,4.18-21.58,16.94-23.05,18.83a42.35,42.35,0,0,0-9.85-.43c1.44-9.85,8.71-19.94,9.45-20.68s1.47-2.5-.25-2.5c-13.72,1.23-21,22.38-21.93,26.05-1.22.24-7.34,1.29-9.79,2,1.47-15.44,8.77-24.07,10.24-25.05s2-2.45,0-2.45c-16.77.33-23.79,31.89-24.77,36.06-3.18,1.22-8.49,5.21-10.94,6.68-1.2-19.55,7.77-35,8.75-36s1.72-2.7-.49-2.2c-20.28,5.74-19.77,43.67-20.14,47.72-0.49,3.8-3.19,2-4,1.55a6.76,6.76,0,0,0-10.21,5.81,5.5,5.5,0,0,0,.25,1.66,7.32,7.32,0,0,0-4.42,6.43,6.76,6.76,0,0,0,6.76,6.76,6.32,6.32,0,0,0,4-1.31,6.74,6.74,0,0,0,5.07,2.29c3.73,0,8.09-2.84,8.33-10.43,17.7-21.69,48.12-31.82,58.85-31.83,18.14,0,24.22,5,28.16,8.11v49l-141.06,0Zm56.39,424.26c-15-25-25.55-51.64-30-79.86l153.71-.17c16.64,24,44.47,44.38,84.23,46.2v33.8Zm69.29,82,138.66-.32v95C1658.17,2117.5,1608.18,2085.63,1565.87,2047.33Zm47.2-223.81V1658h194.55v165.51c0,45-37.75,96.55-97.27,96.55S1613.07,1868.52,1613.07,1823.51Zm341.18,61c-17.42,114.7-136.47,204-238.1,257.7V1931.54a109.06,109.06,0,0,0,44.59-11.38l-0.31,2.91c-3.41,10-3.22,14.2-3.42,16.35-0.58,4.5-6.1,4.94-7.08,4.44a8,8,0,0,0-12.11,6.88,6.52,6.52,0,0,0,.3,2c-2.87,1.21-4.15,3.58-4.15,6.89,0,4.42,2.86,8,7.28,8,1.83,0,3,.21,4.37-0.83a8,8,0,0,0,6,2.71c4.42,0,6.68-1.18,7-10.18,29.58-15.66,74.59-27.64,94.51-26.57,22.53,1.21,38.91,23.81,40.65,25.26s3.19,1.45,2.9-.87c-1.45-9.29-4.32-23.28-26.28-35.28,1.45-6.1,12.16-7.24,14.15-8.13,1.5-.67,2-2.61,0-2.61-14.7-1.94-25.19,4.65-27.22,7.26a79.85,79.85,0,0,0-14.88-1c1.63-7.46,6-12.9,12.49-18.37-0.94.79,1.74-2.32-.29-2.32-16.26,1.45-26.35,18.29-27.51,22.65-1.45.29-19.09,3.19-22,4.07,2.65-17.11,22.07-28.75,23.81-29.91s2.32-2.9,0-2.9c-24.43.82-42.32,32.38-43.19,39.06-3.77,1.45-9.58,3.48-12.48,5.23-1-11.38-.8-14.9,2.3-21.68l1.63-3.38c28.37-21.82,42-55.4,42-79V1816.7l140.19-.43Zm5.59-79L1819,1805l0.25-79.94,146.9-.41ZM1972,1647.32H1819.23v-3.52H1716.15v-81.27l262.19,1.49ZM1710.34,1491c-66.79,0-143,5.08-271.22,37.17l-5.35-72c50.09-12.34,157.52-37.75,276.57-37.75s226.49,25.41,276.57,37.75l-5.35,72C1853.35,1496.12,1777.12,1491,1710.34,1491Z" transform="translate(-1421.42 -1406.83)"/><path class="cls-1" d="M1601.48,1725.44c-3.42,4.32-7.42,10.07-8.15,13.16,1.59,0.85,5,3.7,8.18,7.65h0l0-20.81h0Z" transform="translate(-1421.42 -1406.83)"/><path class="cls-1" d="M1753.39,2016.94c-0.23,7.2-2,8.15-5.57,8.15a6.39,6.39,0,0,1-4.81-2.17c-1.08.83-2,.66-3.5,0.66-3.54,0-5.82-2.87-5.82-6.41,0-2.65,1-4.54,3.32-5.51a5.19,5.19,0,0,1-.24-1.57,6.41,6.41,0,0,1,9.69-5.5c0.79,0.39,5.2,0,5.66-3.56,0.35-3.83,8.29-32.61,28-35.4,2.09-.46,1.39,1.16.47,2.09,1.58-1.58-17,13.19-15.49,29.65,2.32-1.39,9.15-3.75,12.17-4.91,0.7-5.34,16.83-29.5,36.37-30.15,1.86,0,1.39,1.39,0,2.32s-18.38,9.87-20.5,23.56c2.32-.7,13.89-3,15.06-3.25,0.93-3.48,13.2-18.79,27.45-18.48,1.63,0-.52,2.49.23,1.86-5.2,4.37-14.85,9.82-16.16,15.78a64,64,0,0,1,11.91.81c1.63-2.09,10.74-8.09,22.5-6.53,1.63,0,1.2,1.56,0,2.09-1.6.71-9.07,3.08-10.24,8,12.7,7.49,17.68,15.35,18.84,22.78,0.23,1.86-.93,1.86-2.32.7s-14.86-14.16-32.88-15.13c-15.94-.86-50.49,7.64-74.16,20.17h0Z" transform="translate(-1421.42 -1406.83)"/><path class="cls-1" d="M1747,2066.6c-0.16,4.92-2.48,5.94-4.9,5.94a4.37,4.37,0,0,1-3.29-1.49,3.36,3.36,0,0,1-2.39.45c-2.42,0-4-2-4-4.38a3.69,3.69,0,0,1,2.27-3.77,3.57,3.57,0,0,1-.16-1.07,4.38,4.38,0,0,1,6.62-3.76c0.54,0.27,3.56,0,3.87-2.43,0.24-2.62,1.56-22.78,13.73-24.94,1.43-.32,1,0.8.32,1.43,1.08-1.08-7.22,8.53-5.15,20.46a53,53,0,0,1,6.69-2.81c0.48-3.65,5-20.54,18.34-21,1.27,0,1,1,0,1.59s-6.58,6.57-8,15.94c1.8-.93,6.34-1.66,8.12-2.22,0.63-2.38,10.3-15.39,20-15.18,1.11,0-.36,1.7.16,1.27-3.55,3-8.34,7.8-9.24,11.88a29.61,29.61,0,0,1,6.51,0,13.72,13.72,0,0,1,13.21-5.38c1.11,0,.82,1.06,0,1.43a9.31,9.31,0,0,0-4.82,5.8c9.37,4.53,13.37,8.5,14.16,13.58,0.16,1.27-.63,1.27-1.59.48a42.18,42.18,0,0,0-21.77-7.26c-10.9-.59-32.25,5.36-48.73,15.43h0Z" transform="translate(-1421.42 -1406.83)"/><path class="cls-1" d="M1629.76,1805.54c0.91-2.72,3.81-6,4.17-7.62s-0.18-2.9.91-4.54a56.11,56.11,0,0,1,5.26-5.81c1.09-1.09,4.9-2.72,6.9,1.63s5.44,14,12.34,16.88a65.48,65.48,0,0,1-12.7,4.54c-3.45.73-6.17,1.27-4.72,9.8s1.82,12.16,1.27,14.88a13.75,13.75,0,0,0,4.36,13.07h0l4.54,6.35h0c1.81,1.63,6.17,3.45,6.53-.18s1.45-7.26-2.18-7.62c-1.27-.18-4.72-3.09-4.35-6.35a14.44,14.44,0,0,0-2-8.71,11.9,11.9,0,0,1-1.27-8.53c0.73-2.72,2.72-4.35,7.26-3.45,3.63,1.27,20.33,5.81,25.41.18,3.45,2.54,24,10.16,35.93,8.89,2.18,3.81,6.71,12.16,9.62,14.52,2.36,2.18,3.27,9.07-.73,12.7-2.36,1.81-8.53,8.17-13.61,9.62s-7.08,2.36-9.44,4.72-3.81,2.36-5.26,5.44-4.72,8.53.54,8.53,6.71-2.54,7.08-4,0-4.54,2-5.08,8.17-.91,12.34-6,12.52-7.8,15.79-8.35,3.63-3.81,3.27-5.44-0.54-5.81,1.45-8c2.9,0.73,12.16,2.72,16.52,8.71a23.45,23.45,0,0,0,1.63,3.63c-1.27,2.18-3.81,4.17-4.72,6.35s-2,5.81-6.17,9.07-7.8,5.26-9.8,8.17a14.49,14.49,0,0,0-2.9,10c0.36,4,1.45,2,3.27,2s6-2,6.17-4.72-1.09-4,2.72-5.62,10.53-7.08,12-10.53,5.81-10.16,9.25-12.16,2.72-4.9,1.09-7.8-7.26-10.71-6.17-15.79,7.08-8.17,8.89-16,0.73-11.43-.36-14.16c3.09-.91,4.9-0.18,8.89,1.63s13.07,1.45,14.15-1.09,0.73-7.62,0-8.71c2.54-2.18,4.36-6.9,2.9-9.07a10.08,10.08,0,0,1-1.45-8c-2.54-.36-5.26-2.54-3.45-4.17s5.44-5.44,3.81-10.34c0.54-3.09.73-6.9-4.54-6.71-0.18-2-1.81-8.53-10-2.54-1.27.91-2.72-1.09-.91-1.63s11.25-3.63,12.7-6.9,0.91-4.9.36-6.17c0.73-1.45,1.45-4.36.73-5.44s-3.63-.91-5.63,4-1.45,4.9-6.71,5.81-9.26,0-12.7,5.81c-1.09,1.45-1.63,3.08-4.17,4.54a8.82,8.82,0,0,0-4.36,5.81c-0.36,2,1.45,5.63,1.09,8.17s-1.81,8,4.9,13.79c3.27,3.63,8.17,8.35,4.54,12s-6.9-.18-9.62-2-11.61-4.54-17.42-4.17-24.86-4.36-29.4-8.17-1.76-5.74.54-6.9a6.38,6.38,0,0,0,3.63-3.27c0.91-1.82,2.36-2.18,4-2.18s3.27-.36,4.72-3.81,2.9-2.18,4.54-2.54a2.61,2.61,0,0,0-.18-4.9c-2.9-1.09-4.54-2.18-4.36-3.27s2.18-3.45,4.9-3.63,2.9-2,2.72-3.45,0-2.36,1.82-3.27,1.63-3.08-1.45-4-7.62-2-7.62-3.45,2-4,4-4.72,2.9-3.81-1.63-3.63-7.08.73-8-2.18-1.09-4.54,3.63-6.35c2-.54,2.54-3.27-1.09-3.09s-7.8,2-9.07.73-0.91-2.36-.18-2.9a1.31,1.31,0,0,0-.91-2.36c-1.82,0-8.89,2.72-10.71.73s-4.72-3.08-7.08-1.63-2.36,3.63-1.09,4.9a1.35,1.35,0,1,1-1.82,2,2.43,2.43,0,0,1-.91-2.72,5.59,5.59,0,0,0-2.36-3.08c-1.27-.73-1.27-2.72-0.91-4s-1.09-2.54-3.27-1.27-4.17,3.45-3.09,6.71c-2.36.18-8.35,1.63-8.53,3.45s0.73,3.81.36,4.54-2.36.73-3.45,1.45c-3.08,3.08-8.35,6-9.62,7.26s-2.18,2.54-3.81,4.54c-1.63,1.82-1.78,3.9-1.09,4.9,2,2.9,3.63.91,4.72,2.54s1.09,2,.91,2.9,2,2.9,5.26.18,5.63-5.63,8.17-2.54,0.18,4.9-.91,6.9c-2.18,2.18-7.26,8.89-9.62,10.89s-4.17,6.71-5.08,11.07-2,5.26-2.9,6.35c-4.36-1.63-9.26-3.63-12-5.81-1.81-1.45-5.81-3.27-8.35.36-1.27,1.45-7.8,10.34-9.44,14.15s-4.17,2.36-4.17,9.62c0,2.54-2,3.63-3.09,7.62-0.18,1.09-3.09,7.8-.18,9.07s6.35-.36,7.08-2.18,0.91-7.44,1.09-9.44h0Z" transform="translate(-1421.42 -1406.83)"/><path class="cls-1" d="M1512.17,1620.62c-0.36,11.25-6.81,15.45-12.34,15.45a10,10,0,0,1-7.51-3.39,9.36,9.36,0,0,1-5.92,1.94,10,10,0,0,1-10-10,10.84,10.84,0,0,1,6.55-9.52,8.18,8.18,0,0,1-.37-2.45,10,10,0,0,1,15.13-8.6c1.23,0.62,6.31,2.79,7-2.83,0.54-6,8.53-59.34,39.38-63.7,3.27-.73,2.18,1.82.73,3.27s-25.41,20.69-22.5,53.35a227.52,227.52,0,0,1,21.05-10.16c1.09-8.35,13.07-47.19,39.93-47.91,2.9,0,2.18,2.18,0,3.63s-18.51,14.52-20.69,37.38c3.63-1.09,15.24-2.9,17.06-3.27,1.45-5.44,12.7-31.94,33-33.75,2.54,0,1.45,1.81.36,2.9s-15.61,13.43-15.61,27.95c3.63-.36,13.79-0.36,16.33.36,2.54-3.27,13.43-15.24,29-16.33,2.54,0,1.45,1.82,0,3.27s-10.89,9.8-12.7,17.42c5.45,2.9,21.05,13.43,22.87,25,0.36,2.9-1.45,2.9-3.63,1.09s-18.87-15.24-39.93-15.24-60.61,10.16-97.27,34.12h0Z" transform="translate(-1421.42 -1406.83)"/><path class="cls-1" d="M1512.53,1465.09c-0.36-11.61-9.62-12.52-16.15-11.07l-51.72,11.61,3.63,50.45,12.52-2.9-1.63-20,43.37-9.8C1510.71,1481.6,1512.89,1476.7,1512.53,1465.09Zm-18,8.53-36.11,8-0.36-7.44s31.21-7.08,34.84-7.8,4.94,1.1,5.08,2.36A4.29,4.29,0,0,1,1494.56,1473.62Z" transform="translate(-1421.42 -1406.83)"/><path class="cls-1" d="M1592,1475.43l-0.54-24.32c0-9.44-11.43-12.88-16.52-12L1533,1446c-12.88,2-12.7,8.89-12.7,13.61l0.54,22.87c0.36,13.07,11.61,14.15,18.51,12.88l38.84-6.17C1591.83,1487.23,1592.2,1480.52,1592,1475.43Zm-19.24,3.09L1541,1483.6c-4.36.73-7.26,0.91-7.62-4.72l-0.36-13.61c0-3.81-.18-7.44,6.53-8.71l32.12-5.45c3.45-.54,7.08,2,7.08,5.45l0.36,14.88C1579.13,1473.8,1578,1477.61,1572.78,1478.52Z" transform="translate(-1421.42 -1406.83)"/><path class="cls-1" d="M1697.27,1450.22a4.36,4.36,0,1,1,0-8.73h51.18v-10.88h-57.17c-2.9,0-12.7.64-12.61,15.43s10.43,15.06,12.61,15.06h40.11a4.36,4.36,0,0,1,4.36,4.36,4.07,4.07,0,0,1-4.36,4h-51.18v10.88h57c3.63,0,13.16.54,13.16-15.15s-10.71-15-13.16-15h-39.92Z" transform="translate(-1421.42 -1406.83)"/><polygon class="cls-1" points="416.68 29.95 413.59 81.48 425.57 83.12 427.02 60.98 469.12 68.96 467.67 90.01 479.65 92.19 482.74 40.83 470.94 38.66 469.67 58.62 427.57 50.63 428.65 31.76 416.68 29.95 416.68 29.95 416.68 29.95"/><polygon class="cls-1" points="490.9 93.83 493.81 43.01 551.52 55.17 550.79 65.52 505.24 55.9 504.88 65.33 550.06 74.95 549.34 85.3 504.15 75.68 503.61 86.02 548.61 95.64 547.71 105.98 490.9 93.83 490.9 93.83 490.9 93.83"/><path class="cls-1" d="M1826.67,1447.12l0.54-11.25L1774,1431.7h0c-4.54-.36-13.25-0.73-14,14.16s-1.09,21.6-1.09,21.6c-0.18,5.08,2.9,13.61,12.52,14.34h0l53,4,0.54-11.25-44.28-3.27h0c-4.17-.18-8.71-1.45-8.35-9.07h0l0.36-10.89h0c0.18-4.36,1.63-8.35,8.53-7.8h0l45.37,3.63h0Z" transform="translate(-1421.42 -1406.83)"/><path class="cls-1" d="M1665.61,1456.88A21.87,21.87,0,0,0,1669,1446c0-13.06-8.35-15-17.87-14.23l-52,3.47,1.37,50.1,12.48-.59-0.34-20,34.65-2.26c6.82-.47,10.84,4.12,10.86,11.45v7.37l12.54-.6,0-8.39C1670.69,1464.36,1668.24,1458.92,1665.61,1456.88Zm-16.21-5.42-37.16,2.08-0.16-8,37.64-2c2.91,0.08,4.12,1.12,4.24,3.77S1652,1451.26,1649.4,1451.46Z" transform="translate(-1421.42 -1406.83)"/><path class="cls-1" d="M1626.48,1690c0.54,3.09,2,4.36,4.83,4.36,2.4,0,4.07-1.27,4.07-3.09,0-1-.54-1.63-1.92-2.29h0l-6.64-3.09h0a6.51,6.51,0,0,1-4.21-6.57c0-4.83,3.16-8,7.95-8,5.26,0,8.28,3,8.49,8.53h-4.36c-0.44-2.9-1.63-4.1-4.07-4.1-2.18,0-3.74,1.27-3.74,3a2.28,2.28,0,0,0,1.52,2h0l6.82,3.16h0c3.08,1.42,4.43,3.09,4.43,6.64a8.29,8.29,0,0,1-2.72,6.32c-1.49,1.34-3.16,1.89-5.77,1.89-3.63,0-6.21-1.27-7.69-3.81a9.38,9.38,0,0,1-1.27-5h4.28Z" transform="translate(-1421.42 -1406.83)"/><polygon class="cls-1" points="237.24 265 237.24 269.79 230.82 269.79 230.82 291.46 226.35 291.46 226.35 269.79 219.78 269.79 219.78 265 237.24 265 237.24 265 237.24 265"/><path class="cls-1" d="M1679.25,1671.83v16.33h0c0,6-1.78,10.64-8.75,10.64s-8.75-4.54-8.75-10.64h0v-16.33h4.47v16.22h0c0,4.28,1.2,6,4.21,6,3.19,0,4.36-1.6,4.36-6h0v-16.22h4.46Z" transform="translate(-1421.42 -1406.83)"/><polygon class="cls-1" points="277.63 265 277.63 269.79 271.21 269.79 271.21 291.46 266.74 291.46 266.74 269.79 260.17 269.79 260.17 265 277.63 265 277.63 265 277.63 265"/><path class="cls-1" d="M1729,1684h9v14.34H1735l-0.44-3.34h0c-1.71,2.65-3.78,3.85-6.5,3.85-5.84,0-10-5.59-10-13.5,0-8.42,4.21-14,10.64-14,5.23,0,8.71,3.3,9.36,8.93h-4.57c-0.87-2.87-2.32-4.14-4.75-4.14-3.74,0-6.06,3.45-6.06,9s2.4,8.93,6.06,8.93c2.79,0,4.65-2,5.23-5.52H1729V1684h0Z" transform="translate(-1421.42 -1406.83)"/><polygon class="cls-1" points="379.35 265 379.35 269.79 372.93 269.79 372.93 291.46 368.46 291.46 368.46 269.79 361.89 269.79 361.89 265 379.35 265 379.35 265 379.35 265"/><polygon class="cls-1" points="297.23 265 297.23 269.79 290.81 269.79 290.81 291.46 286.34 291.46 286.34 269.79 279.77 269.79 279.77 265 297.23 265 297.23 265 297.23 265"/><path class="cls-1" d="M1753.31,1671.83h-5l-7.73,26.46h4.68l1.52-5.55h7.88l1.49,5.55H1761ZM1748,1688.2l2.72-10.31,2.72,10.31H1748Z" transform="translate(-1421.42 -1406.83)"/><path class="cls-1" d="M1780.28,1692.56c-0.18-5.12-.44-5.84-2.54-7,2.32-1.52,3.08-3.09,3.08-6.13a8.16,8.16,0,0,0-2.25-6.1c-1.31-1.2-2.47-1.52-5.55-1.52h-9.55v26.46h4.46v-10.45h4.1c4.14,0,3.59,2.4,3.7,6.28a11.34,11.34,0,0,0,.54,4.17h4.94C1780.53,1697.49,1780.42,1696.84,1780.28,1692.56Zm-8.09-9.18h-4.25v-6.75h4.25c3.09,0,4,.76,4,3.34S1775.23,1683.37,1772.18,1683.37Z" transform="translate(-1421.42 -1406.83)"/></svg>