<?xml version="1.0" encoding="utf-8"?>
<!-- Generator: Adobe Illustrator 19.2.0, SVG Export Plug-In . SVG Version: 6.00 Build 0)  -->
<svg version="1.1" id="Layer_1" xmlns="http://www.w3.org/2000/svg" xmlns:xlink="http://www.w3.org/1999/xlink" x="0px" y="0px"
	 viewBox="0 0 85.8 85.7" width="86" height="86" style="enable-background:new 0 0 85.8 85.7;" xml:space="preserve">
<style type="text/css">
	.st0{fill:#FFFFFF;}
	.st1{fill-rule:evenodd;clip-rule:evenodd;fill:#FFFFFF;}
</style>
<path class="st0" d="M43.6,72.6c0-3.2,2.5-5.7,5.7-5.7c3.1,0,5.7,2.6,5.7,5.7c-0.1,3.1-2.6,5.7-5.7,5.7
	C46.1,78.3,43.6,75.7,43.6,72.6 M49.3,76.2c1.7,0,3.1-1.6,3.2-3.6c0-2-1.4-3.6-3.2-3.6c-1.8,0-3.2,1.6-3.2,3.6
	C46.1,74.6,47.5,76.2,49.3,76.2"/>
<polyline class="st0" points="61.5,69.3 61.5,78 59.1,78 59.1,69.3 55.6,69.3 55.6,67.3 64.8,67.3 64.8,69.3 "/>
<path class="st0" d="M67.7,75.6L66.8,78h-2.9l4.5-10.7h3L75.8,78h-2.9L72,75.6 M69.9,73.8h1.5l-1.5-3.9l-1.5,3.9H69.9"/>
<polyline class="st0" points="17.2,69.3 17.2,78 14.8,78 14.8,69.3 11.5,69.3 11.5,67.3 20.6,67.3 20.6,69.3 "/>
<path class="st0" d="M21.2,72.6c0-3.2,2.6-5.7,5.7-5.7c3.1,0,5.7,2.6,5.7,5.7c0,3.1-2.6,5.7-5.7,5.7C23.7,78.3,21.2,75.7,21.2,72.6
	 M26.9,76.2c1.7,0,3.2-1.6,3.2-3.6c0-2-1.4-3.6-3.2-3.6c-1.8,0-3.2,1.6-3.2,3.6C23.7,74.6,25.1,76.2,26.9,76.2"/>
<polyline class="st0" points="38,78 39.2,78 39.2,74 43.4,67.3 40.7,67.3 38,71.9 35.5,67.3 32.6,67.3 36.8,74 36.8,78 "/>
<path class="st1" d="M42.1,55.3c-2.9-1.8-5-8-5-15.4c0-0.3,0-0.5,0-0.8l0,0l0,0l0,0c-8-1.3-13.8-4.7-13.9-8.8l0,0l0,0l0,0
	c-2,2.4-3.1,5.2-3.1,8.2C20,47.5,29.7,54.7,42.1,55.3L42.1,55.3L42.1,55.3L42.1,55.3L42.1,55.3z M16.3,39.3
	c0-9.9,12.3-17.9,27.4-17.9s27.4,8,27.4,17.9c0,9.9-12.3,17.9-27.4,17.9S16.3,49.2,16.3,39.3L16.3,39.3L16.3,39.3L16.3,39.3z
	 M43.8,24c2.9,0,5.4,4.4,6.3,10.6l0,0l0,0l0,0c5.7-0.9,9.7-2.9,9.7-5.3c0-3.2-7.2-5.8-16-5.8c-8.8,0-16,2.6-16,5.8
	c0,2.4,4,4.4,9.7,5.3l0,0l0,0l0,0C38.4,28.4,40.9,24,43.8,24L43.8,24L43.8,24L43.8,24z M45.6,55.3c12.3-0.6,22-7.9,22-16.7
	c0-3-1.1-5.8-3.1-8.2l0,0l0,0l0,0c-0.1,4.1-5.9,7.5-13.9,8.8l0,0l0,0l0,0c0,0.3,0,0.5,0,0.8C50.5,47.3,48.4,53.5,45.6,55.3
	L45.6,55.3L45.6,55.3L45.6,55.3L45.6,55.3z M43.8,35.1c1.3,0,2.6-0.1,3.8-0.2l0,0l0,0l0,0c-0.6-4-2.1-6.8-3.8-6.8
	c-1.7,0-3.2,2.8-3.8,6.8l0,0l0,0l0,0C41.2,35,42.5,35.1,43.8,35.1L43.8,35.1L43.8,35.1L43.8,35.1z M43.8,49.8c2.2,0,4-4.6,4.1-10.3
	l0,0l0,0l0,0c-1.3,0.1-2.7,0.2-4.1,0.2c-1.4,0-2.8-0.1-4.1-0.2l0,0l0,0l0,0C39.8,45.2,41.6,49.8,43.8,49.8L43.8,49.8L43.8,49.8
	L43.8,49.8z"/>
</svg>
