<svg id="Слой_1" data-name="Слой 1" xmlns="http://www.w3.org/2000/svg" width="42" height="61" viewBox="0 0 28.42 40.66"><defs><style>.cls-1{fill:none;}.cls-2{fill:#edd077;}.cls-3{fill:#fff;}</style></defs><title>phone-icon</title><path class="cls-1" d="M46.1,170.08a2.64,2.64,0,0,0,2.63,2.63H64.26a2.64,2.64,0,0,0,2.63-2.63v-3.93H46.1v3.93Zm10.39-1.94a1.29,1.29,0,1,1-1.29,1.29A1.29,1.29,0,0,1,56.49,168.14Z" transform="translate(-44.9 -133.25)"/><circle class="cls-1" cx="22.6" cy="17.29" r="2.33"/><path class="cls-1" d="M66.89,137.09a2.64,2.64,0,0,0-2.63-2.63H48.73a2.64,2.64,0,0,0-2.63,2.63V141H66.89v-3.93Z" transform="translate(-44.9 -133.25)"/><path class="cls-2" d="M73.29,149.89a0.38,0.38,0,0,0-.37-0.29,1.29,1.29,0,0,1-.88-2.24,0.32,0.32,0,0,0,0-.44,5.76,5.76,0,0,0-.92-0.93,0.32,0.32,0,0,0-.44,0,1.34,1.34,0,0,1-1.45.33,1.3,1.3,0,0,1-.79-1.27,0.32,0.32,0,0,0-.29-0.34,5.8,5.8,0,0,0-1.31,0,0.32,0.32,0,0,0-.29.33,1.3,1.3,0,0,1-.8,1.24,1.34,1.34,0,0,1-1.44-.33,0.33,0.33,0,0,0-.44,0,5.77,5.77,0,0,0-.94.93,0.32,0.32,0,0,0,0,.44,1.29,1.29,0,0,1,.33,1.46,1.35,1.35,0,0,1-1.27.79,0.32,0.32,0,0,0-.34.29,5.86,5.86,0,0,0,0,1.33,0.39,0.39,0,0,0,.38.29,1.28,1.28,0,0,1,1.2.8,1.3,1.3,0,0,1-.33,1.44,0.32,0.32,0,0,0,0,.44,5.77,5.77,0,0,0,.92.93,0.32,0.32,0,0,0,.44,0,1.34,1.34,0,0,1,1.45-.33,1.29,1.29,0,0,1,.79,1.27,0.32,0.32,0,0,0,.29.34,5.77,5.77,0,0,0,1.31,0,0.32,0.32,0,0,0,.29-0.33,1.3,1.3,0,0,1,.8-1.24,1.34,1.34,0,0,1,1.44.33,0.32,0.32,0,0,0,.44,0,5.78,5.78,0,0,0,.94-0.93,0.32,0.32,0,0,0,0-.44,1.29,1.29,0,0,1,.87-2.25h0.07a0.32,0.32,0,0,0,.34-0.29A5.85,5.85,0,0,0,73.29,149.89Zm-5.78,3a2.33,2.33,0,1,1,2.33-2.33A2.33,2.33,0,0,1,67.5,152.87Z" transform="translate(-44.9 -133.25)"/><circle class="cls-3" cx="11.6" cy="36.18" r="1.29"/><path class="cls-3" d="M66.89,165H46.1V142.22h22v-5.13a3.84,3.84,0,0,0-3.83-3.83H48.73a3.84,3.84,0,0,0-3.83,3.83v33a3.84,3.84,0,0,0,3.83,3.83H64.26a3.84,3.84,0,0,0,3.83-3.83v-11h-1.2V165ZM46.1,141v-3.88a2.64,2.64,0,0,1,2.63-2.63H64.26a2.64,2.64,0,0,1,2.63,2.63V141H46.1v0Zm20.79,29.11a2.64,2.64,0,0,1-2.63,2.63H48.73a2.64,2.64,0,0,1-2.63-2.63v-3.93H66.89v3.93Z" transform="translate(-44.9 -133.25)"/></svg>