<?xml version="1.0" encoding="utf-8"?>
<!-- Generator: Adobe Illustrator 16.0.2, SVG Export Plug-In . SVG Version: 6.00 Build 0)  -->
<!DOCTYPE svg PUBLIC "-//W3C//DTD SVG 1.1//EN" "http://www.w3.org/Graphics/SVG/1.1/DTD/svg11.dtd">
<svg version="1.1" id="Layer_1" xmlns="http://www.w3.org/2000/svg" xmlns:xlink="http://www.w3.org/1999/xlink" x="0px" y="0px"
	 width="30px" height="30px" viewBox="0 0 30 30" enable-background="new 0 0 30 30" xml:space="preserve">
<path fill="#FFFFFF" d="M29.999,15c0,8.283-6.715,15-14.999,15c-2.63,0-5.1-0.678-7.25-1.868c-1.506-0.778-3.601-2.257-5.597-5.389
	C0.788,20.484,0.001,17.834,0.001,15C0.001,6.715,6.716,0,15,0C23.284,0,29.999,6.715,29.999,15z M15,2.389
	C8.046,2.389,2.39,8.046,2.39,15c0,2.76,0.702,7.122,5.47,10.611c0,0,1.934,2,7.14,2c6.954,0,12.61-5.656,12.61-12.61
	C27.61,8.046,21.954,2.389,15,2.389z M22.574,18.453c-0.093-0.151-0.337-0.244-0.704-0.428c-0.368-0.183-2.177-1.074-2.513-1.197
	c-0.337-0.12-0.583-0.183-0.828,0.184c-0.244,0.369-0.949,1.197-1.164,1.441c-0.215,0.246-0.429,0.277-0.797,0.094
	c-0.367-0.183-1.552-0.572-2.956-1.826c-1.093-0.974-1.831-2.176-2.046-2.545c-0.214-0.368-0.022-0.566,0.161-0.75
	c0.166-0.165,0.368-0.429,0.552-0.644c0.185-0.215,0.245-0.368,0.367-0.613c0.123-0.246,0.063-0.46-0.03-0.645
	c-0.092-0.184-0.828-1.992-1.134-2.729c-0.306-0.736-0.612-0.613-0.827-0.613c-0.214,0-0.459-0.031-0.705-0.031
	c-0.245,0-0.644,0.092-0.98,0.46C8.633,8.979,7.684,9.87,7.684,11.678c0,1.81,1.316,3.558,1.501,3.803
	c0.184,0.245,2.542,4.079,6.28,5.551c3.739,1.471,3.739,0.98,4.413,0.921c0.674-0.063,2.175-0.892,2.482-1.748
	C22.665,19.344,22.665,18.607,22.574,18.453z"/>
</svg>
