<svg id="Слой_1" data-name="Слой 1" xmlns="http://www.w3.org/2000/svg" width="54" height="54" viewBox="0 0 36.72 36.72"><defs><style>.cls-1{fill:#fff;}.cls-2{fill:#eed077;}</style></defs><title>serv-icon</title><path class="cls-1" d="M374.14,171.94H368a0.6,0.6,0,0,1-.6-0.6v-4.62l-0.78-.28a19.35,19.35,0,0,1-2.28-.91l-3.23,3.23a0.6,0.6,0,0,1-.85,0l-4.37-4.37a0.6,0.6,0,0,1,0-.85l3.23-3.23a15.44,15.44,0,0,1-1.32-4.29h-4.5a0.6,0.6,0,0,1-.6-0.6v-4.9a0.6,0.6,0,0,1,.6-0.6h4.56a18.67,18.67,0,0,1,1.26-3.06l-3.22-3.22a0.6,0.6,0,0,1,0-.85l4.37-4.37a0.6,0.6,0,0,1,.85,0l3.22,3.22a17.73,17.73,0,0,1,3.07-1.26v-4.55a0.6,0.6,0,0,1,.6-0.6h6.12a0.6,0.6,0,0,1,.6.6v5h-1.2v-4.41h-4.92v4.41a0.6,0.6,0,0,1-.47.59,15,15,0,0,0-3.58,1.47,0.6,0.6,0,0,1-.74-0.09l-3.12-3.12-3.52,3.52,3.12,3.12a0.6,0.6,0,0,1,.09.74,16.07,16.07,0,0,0-1.48,3.59,0.6,0.6,0,0,1-.58.46h-4.41v3.7h4.41a0.6,0.6,0,0,1,.59.52,13.75,13.75,0,0,0,1.47,4.76,0.6,0.6,0,0,1-.09.74L357.18,164l3.52,3.52,3.12-3.12a0.6,0.6,0,0,1,.74-0.09,14.41,14.41,0,0,0,2.47,1,10.2,10.2,0,0,1,1.27.5,0.6,0.6,0,0,1,.31.53v4.41h4.92v-4.41a0.6,0.6,0,0,1,.31-0.53,10.19,10.19,0,0,1,1.28-.5,14.42,14.42,0,0,0,2.46-1,0.6,0.6,0,0,1,.74.09l3.12,3.12L385,164l-3.12-3.12a0.6,0.6,0,0,1-.09-0.74,9,9,0,0,0,1.47-4.74,0.6,0.6,0,0,1,.6-0.54h4.41v-3.7h-4.41a0.6,0.6,0,0,1-.58-0.46,13,13,0,0,0-1.48-3.6,0.6,0.6,0,0,1,.09-0.74l3.12-3.12-3.51-3.51-7.54,8a0.6,0.6,0,0,1-.7.13l-0.07,0a5,5,0,0,0-2.07-.35,6.13,6.13,0,1,0,5,2.6l1-.69a7.34,7.34,0,1,1-6-3.11,6.59,6.59,0,0,1,2.26.33l7.68-8.15a0.6,0.6,0,0,1,.43-0.19,0.61,0.61,0,0,1,.43.18l4.37,4.37a0.6,0.6,0,0,1,0,.85L383,146.85a14.4,14.4,0,0,1,1.26,3.07h4.55a0.6,0.6,0,0,1,.6.6v4.9a0.6,0.6,0,0,1-.6.6h-4.48a9.52,9.52,0,0,1-1.33,4.3l3.21,3.21a0.6,0.6,0,0,1,0,.85l-4.37,4.37a0.6,0.6,0,0,1-.85,0l-3.23-3.23a19.24,19.24,0,0,1-2.27.91l-0.79.28v4.62A0.6,0.6,0,0,1,374.14,171.94Z" transform="translate(-352.72 -135.23)"/><circle class="cls-2" cx="18.58" cy="18.36" r="3.75"/></svg>