<svg id="Слой_1" data-name="Слой 1" width="24" height="24" xmlns="http://www.w3.org/2000/svg" viewBox="0 0 39.79 40"><defs><style>.cls-1{fill:#4d75a3;fill-rule:evenodd;}</style></defs><title>vk-big</title><path class="cls-1" d="M147.9,377.22H118.06a5,5,0,0,0-5,5v30a5,5,0,0,0,5,5H147.9a5,5,0,0,0,5-5v-30A5,5,0,0,0,147.9,377.22Zm-5.79,22.46a10.36,10.36,0,0,1,2.31,2.66c0.77,1.27-.85,1.4-0.85,1.4h-3.11a2.11,2.11,0,0,1-1.55-.45c-1.16-.79-2.26-2.86-3.11-2.59s-0.84,2.15-.84,2.15a1,1,0,0,1-.19.61,1.18,1.18,0,0,1-.63.28h-1.39a8.08,8.08,0,0,1-5.77-2.64c-2.95-3.05-5.55-9.16-5.55-9.16a0.72,0.72,0,0,1,0-.59,1.14,1.14,0,0,1,.68-0.23h3.32a1.46,1.46,0,0,1,.54.22,1,1,0,0,1,.29.39,21.46,21.46,0,0,0,1.25,2.6c1.39,2.39,2,2.91,2.51,2.66,0.69-.37.48-3.38,0.48-3.38a3.34,3.34,0,0,0-.35-1.58,1.56,1.56,0,0,0-1-.52c-0.19,0,.12-0.46.52-0.65a7.55,7.55,0,0,1,2.9-.3,6,6,0,0,1,1.63.16c1.15,0.28.76,1.34,0.76,3.89,0,0.82-.15,2,0.44,2.35,0.25,0.16.88,0,2.43-2.61a19.66,19.66,0,0,0,1.29-2.74,1,1,0,0,1,.31-0.4,0.87,0.87,0,0,1,.45-0.09h3.5s1-.08,1.21.39-0.39,1.65-1.82,3.55C140.43,398.17,140.17,397.88,142.12,399.68Z" transform="translate(-113.09 -377.22)"/></svg>