<svg id="Слой_1" data-name="Слой 1" xmlns="http://www.w3.org/2000/svg" width="16" height="10" viewBox="0 0 21.09 11.72"><defs><style>.cls-1{fill:#fff;fill-rule:evenodd;}</style></defs><title>vk-small</title><path class="cls-1" d="M292.81,403.06h1.26a1.08,1.08,0,0,0,.58-0.24,0.88,0.88,0,0,0,.17-0.54s0-1.67.76-1.91,1.77,1.59,2.82,2.3a2,2,0,0,0,1.4.4h2.82s1.47-.11.77-1.24a9.21,9.21,0,0,0-2.09-2.36c-1.77-1.6-1.53-1.34.6-4.1,1.3-1.68,1.81-2.71,1.65-3.15a1.29,1.29,0,0,0-1.1-.35h-3.18a0.79,0.79,0,0,0-.41.08,0.87,0.87,0,0,0-.28.36,17.3,17.3,0,0,1-1.17,2.44c-1.41,2.34-2,2.46-2.21,2.32-0.54-.34-0.4-1.36-0.4-2.08,0-2.27.35-3.21-.69-3.46a5.58,5.58,0,0,0-1.48-.14,7,7,0,0,0-2.63.26c-0.36.17-.64,0.56-0.47,0.58a1.43,1.43,0,0,1,.94.46,2.91,2.91,0,0,1,.31,1.4s0.19,2.67-.44,3c-0.43.23-1-.24-2.27-2.36a18.9,18.9,0,0,1-1.13-2.31,0.92,0.92,0,0,0-.26-0.34,1.34,1.34,0,0,0-.49-0.19h-3a1,1,0,0,0-.62.2,0.62,0.62,0,0,0,0,.52s2.36,5.42,5,8.13A7.41,7.41,0,0,0,292.81,403.06Z" transform="translate(-282.49 -391.36)"/></svg>