<svg id="Слой_1" data-name="Слой 1" xmlns="http://www.w3.org/2000/svg" viewBox="0 0 39.82 40"><defs><style>.cls-1{fill:#fff;}</style></defs><title>whatsup</title><path class="cls-1" d="M457.12,48.21c-0.49-.25-2.93-1.45-3.38-1.61a0.78,0.78,0,0,0-1.11.25c-0.33.5-1.28,1.61-1.57,1.95a0.76,0.76,0,0,1-1.07.12,13.38,13.38,0,0,1-4-2.46A14.85,14.85,0,0,1,443.24,43a0.73,0.73,0,0,1,.22-1c0.22-.22.5-0.58,0.74-0.87a3.68,3.68,0,0,0,.5-0.83,0.91,0.91,0,0,0,0-.87c-0.13-.25-1.11-2.68-1.52-3.68a1,1,0,0,0-1.11-.85h-1a1.81,1.81,0,0,0-1.32.62A5.56,5.56,0,0,0,438,39.65a9.63,9.63,0,0,0,2,5.12c0.25,0.33,3.5,5.33,8.46,7.48a27.63,27.63,0,0,0,2.82,1,6.7,6.7,0,0,0,3.12.2c1-.14,2.93-1.2,3.34-2.35a4.1,4.1,0,0,0,.29-2.36,2.41,2.41,0,0,0-1-.58m-9,12.34h0a16.45,16.45,0,0,1-8.38-2.3l-0.6-.36-6.24,1.64,1.66-6.08-0.39-.62a16.48,16.48,0,1,1,14,7.72m14-30.5A19.83,19.83,0,0,0,430.9,54L428.1,64.24l10.51-2.76a19.76,19.76,0,0,0,9.47,2.41h0a19.83,19.83,0,0,0,14-33.84" transform="translate(-428.1 -24.24)"/></svg>